<?xml version="1.0" standalone="no"?>
<!DOCTYPE svg PUBLIC "-//W3C//DTD SVG 20010904//EN"
 "http://www.w3.org/TR/2001/REC-SVG-20010904/DTD/svg10.dtd">
<svg version="1.0" xmlns="http://www.w3.org/2000/svg"
 width="1327.000000pt" height="768.000000pt" viewBox="0 0 1327.000000 768.000000"
 preserveAspectRatio="xMidYMid meet">
<metadata>
Created by potrace 1.16, written by Peter Selinger 2001-2019
</metadata>
<g transform="translate(0.000000,768.000000) scale(0.100000,-0.100000)"
fill="#000000" stroke="none">
<path d="M280 7391 c5 -11 10 -42 10 -70 0 -48 2 -51 25 -51 24 0 25 2 25 65
l0 65 68 0 c81 0 112 -17 112 -61 0 -17 -5 -39 -11 -50 -9 -19 -8 -20 17 -17
35 4 60 44 50 81 -11 45 -50 57 -186 57 -116 0 -120 -1 -110 -19z"/>
<path d="M12300 7320 c0 -5 6 -10 13 -10 9 0 18 -22 24 -57 9 -47 8 -61 -3
-74 -16 -17 -13 -84 4 -101 18 -18 57 -5 60 20 3 17 10 22 32 22 22 0 29 -5
32 -22 4 -29 46 -37 64 -13 13 18 8 45 -10 57 -6 4 -47 8 -90 8 -99 0 -91 18
9 22 l70 3 28 57 c16 31 26 62 22 67 -4 7 -46 11 -106 11 -59 0 -99 4 -99 10
0 6 -11 10 -25 10 -14 0 -25 -4 -25 -10z"/>
<path d="M2591 6850 c-27 -35 -56 -39 -64 -9 -4 15 -11 20 -22 15 -9 -3 -25
-6 -36 -6 -13 0 -19 -7 -19 -22 0 -12 -16 -35 -40 -55 -30 -26 -40 -42 -40
-64 0 -16 -6 -38 -12 -50 -11 -17 -10 -22 5 -30 21 -12 22 -55 1 -63 -24 -9
-24 -9 -24 33 0 22 -5 43 -10 46 -13 8 -4 43 17 66 17 20 8 68 -14 76 -10 4
-12 14 -9 29 5 19 2 24 -13 24 -26 0 -44 -25 -36 -50 6 -19 -9 -30 -17 -12 -1
5 -15 12 -30 15 -20 5 -28 3 -31 -10 -4 -16 -5 -16 -6 1 -1 11 -6 16 -15 13
-8 -3 -17 1 -20 10 -9 22 -16 11 -21 -28 -3 -24 -2 -29 5 -19 13 22 23 6 16
-27 -5 -21 -16 -33 -40 -41 -47 -17 -74 -80 -55 -130 7 -18 6 -28 -3 -34 -9
-5 -6 -8 9 -8 13 0 24 -8 28 -21 10 -31 28 -8 29 38 1 31 5 39 24 41 12 2 22
-1 22 -7 0 -6 -4 -11 -9 -11 -4 0 -6 -11 -3 -25 2 -15 0 -25 -7 -25 -7 0 -9
-5 -6 -10 4 -6 11 -8 16 -5 5 4 9 -1 9 -9 0 -10 -6 -13 -15 -10 -11 5 -15 -1
-15 -24 0 -17 5 -34 10 -37 6 -3 10 -15 10 -26 0 -14 7 -19 25 -19 14 0 28 -1
33 -2 4 -2 8 7 10 20 2 12 10 22 19 22 11 0 14 -7 11 -25 -6 -28 -5 -29 20
-16 9 5 25 12 36 15 17 6 17 8 4 24 -18 20 -13 42 9 42 9 0 13 -6 10 -15 -9
-22 12 -29 32 -11 21 19 58 21 64 4 2 -7 8 -10 12 -6 16 15 -17 39 -46 33 -23
-5 -30 -2 -43 22 -10 21 -12 34 -4 48 16 29 16 29 32 16 12 -10 15 -5 21 30 5
28 3 44 -5 49 -13 8 9 20 35 20 23 0 38 -37 25 -60 -9 -17 -8 -20 10 -20 15 0
20 7 20 28 0 15 4 34 9 41 8 12 11 8 16 -15 3 -16 13 -44 20 -61 9 -19 12 -46
9 -63 -5 -24 -3 -30 11 -30 9 0 19 9 22 20 3 11 9 20 14 20 5 0 0 9 -11 20
-11 11 -20 27 -20 35 0 21 29 31 51 17 26 -17 29 -15 29 12 0 14 5 28 10 31 6
4 10 -6 10 -24 0 -16 5 -33 10 -36 6 -4 10 8 10 29 0 30 4 36 21 36 15 0 19
-5 15 -15 -4 -10 3 -20 21 -28 21 -9 27 -9 31 1 3 10 7 9 16 -4 11 -15 14 -15
30 2 18 17 17 18 -3 25 -22 9 -20 33 4 43 17 6 29 -9 20 -24 -3 -5 -1 -10 4
-10 6 0 11 6 12 13 0 6 2 32 4 56 3 33 -1 48 -13 58 -17 12 -14 15 23 17 14 1
21 9 23 31 l4 29 -20 -24 c-24 -29 -40 -20 -25 13 8 16 8 29 0 43 -15 29 -15
29 -35 4 -21 -26 -43 -20 -35 10 5 18 0 20 -42 20 -43 0 -47 -2 -42 -21 8 -29
-12 -69 -34 -69 -10 0 -23 -8 -28 -17 -10 -17 -10 -17 -11 0 0 9 -4 17 -10 17
-16 0 -11 37 6 44 8 3 13 10 9 15 -3 6 3 14 12 20 17 10 17 10 -2 11 -11 0
-31 -14 -44 -30z"/>
<path d="M8480 6856 c0 -19 -8 -27 -35 -36 -59 -20 -80 -62 -101 -206 -7 -49
21 -157 39 -151 6 2 16 20 20 40 5 20 13 37 18 37 5 0 9 7 9 16 0 10 6 13 18
10 12 -4 22 3 34 25 10 16 34 37 54 45 32 14 38 13 60 -1 25 -16 66 -89 78
-139 7 -30 -9 -96 -28 -109 -6 -5 0 -5 13 -2 17 5 21 4 16 -5 -4 -7 -1 -16 6
-21 24 -15 -12 -11 -43 5 -35 18 -70 21 -138 11 -44 -6 -61 -14 -87 -41 -24
-25 -32 -30 -37 -19 -10 27 -46 11 -46 -20 0 -11 64 -75 75 -75 17 0 30 -28
34 -70 1 -8 8 -24 16 -34 15 -20 15 -20 29 0 14 19 15 19 21 -1 21 -65 48 -71
157 -35 70 24 83 32 81 49 -3 25 30 46 45 28 5 -6 9 -30 8 -52 -1 -39 -2 -41
-73 -74 -71 -34 -103 -71 -103 -118 0 -9 -11 -30 -23 -47 -13 -17 -30 -48 -36
-69 -17 -50 -38 -60 -96 -45 -53 14 -58 32 -12 52 19 7 43 25 54 40 24 30 40
33 46 9 3 -11 5 -7 6 10 0 16 -3 26 -8 23 -4 -3 -14 13 -21 37 -6 23 -22 53
-34 68 l-21 26 -37 -21 c-21 -12 -38 -29 -38 -38 0 -11 -10 -20 -27 -24 -16
-3 -40 -10 -55 -16 -50 -19 -28 -71 35 -83 42 -8 59 -40 39 -75 -17 -32 -2
-80 27 -80 17 0 18 -5 14 -40 -5 -33 -2 -41 13 -46 40 -12 49 -22 46 -48 -4
-31 8 -34 26 -5 8 12 21 19 34 17 29 -4 34 -25 9 -33 -31 -10 -26 -18 27 -39
26 -11 55 -27 65 -37 10 -11 29 -22 43 -25 38 -10 109 -124 163 -263 11 -30
19 -57 16 -59 -2 -3 -17 1 -33 7 -30 12 -52 47 -52 79 0 11 -13 23 -34 30 -19
7 -38 22 -41 32 -4 11 -10 20 -14 20 -5 0 -14 13 -20 29 -39 92 -221 178 -221
104 0 -11 -7 -13 -27 -9 -25 7 -26 7 -11 -17 11 -16 13 -28 6 -40 -5 -10 -12
-48 -15 -86 -4 -52 -2 -76 11 -101 19 -40 21 -79 3 -113 -13 -24 -13 -24 -36
-6 -28 23 -136 27 -144 7 -4 -10 -6 -10 -6 0 -1 16 -31 16 -31 -1 0 -7 9 -18
20 -25 11 -7 20 -23 20 -37 0 -17 6 -26 18 -27 9 0 24 -2 32 -2 17 -2 15 -33
-3 -54 -6 -7 -12 -23 -13 -35 -1 -12 -10 -40 -20 -62 -10 -22 -18 -44 -19 -50
-1 -5 -7 -23 -15 -40 -7 -16 -12 -40 -11 -53 2 -13 -2 -29 -8 -36 -5 -6 -8
-32 -6 -56 3 -25 5 -52 6 -61 0 -9 18 -21 42 -30 35 -11 43 -19 45 -43 3 -20
0 -27 -10 -24 -7 3 -12 12 -10 22 4 23 -25 20 -31 -4 -3 -12 -14 -20 -25 -20
-11 0 -29 -3 -39 -7 -17 -7 -17 -5 -2 17 15 24 16 54 3 133 -6 36 -24 62 -24
35 0 -7 -9 -24 -19 -37 l-19 -24 -11 22 c-16 29 -5 59 22 63 30 4 28 31 -3 38
-16 4 -34 21 -49 49 -21 38 -27 42 -52 39 -20 -3 -29 0 -29 9 0 7 5 13 10 13
6 0 9 19 8 43 -1 35 -2 37 -5 10 -3 -21 -9 -30 -17 -27 -8 3 -11 16 -8 34 2
17 -1 37 -8 45 -10 12 -9 15 9 15 14 0 22 8 27 28 8 37 35 104 50 122 7 8 14
26 16 40 2 20 -2 26 -22 28 -14 2 -31 9 -37 14 -9 7 -13 7 -13 -1 0 -6 4 -11
9 -11 5 0 12 -7 15 -15 3 -10 1 -15 -7 -14 -22 4 -46 -12 -40 -27 6 -17 -1
-18 -26 -2 -15 9 -23 9 -35 -1 -9 -7 -13 -17 -10 -22 9 -15 -16 -49 -36 -49
-10 0 -24 -8 -30 -17 -8 -14 -10 -14 -9 -3 1 8 1 30 0 49 -1 33 -2 34 -16 15
-8 -10 -15 -31 -15 -46 0 -23 -4 -28 -25 -28 -32 0 -33 -26 -1 -34 13 -3 32
-9 43 -13 16 -6 16 -5 4 10 -19 24 2 21 30 -4 20 -17 21 -20 5 -14 -19 6 -19
5 -2 -14 10 -11 23 -18 29 -14 5 3 7 1 3 -5 -9 -15 7 -23 24 -12 17 10 40 -5
40 -26 0 -8 -11 -19 -24 -25 -18 -8 -25 -22 -29 -53 -3 -23 -12 -53 -19 -67
-16 -31 -54 -79 -62 -79 -10 0 -7 28 4 32 6 2 -19 3 -54 3 -58 0 -68 3 -96 30
-33 32 -55 93 -45 128 3 12 13 39 22 59 13 30 13 41 4 52 -13 15 0 56 18 56
13 0 21 -28 14 -46 -4 -12 0 -15 18 -12 22 3 24 8 24 56 0 28 -3 52 -7 52 -5
0 -8 9 -8 20 0 33 -18 23 -22 -12 -2 -28 -8 -34 -32 -38 -33 -6 -80 -70 -51
-70 10 0 15 -11 15 -35 0 -31 -3 -35 -25 -35 -24 0 -25 -3 -25 -60 0 -49 3
-62 18 -67 22 -8 32 -23 32 -50 0 -26 -29 -37 -76 -28 -49 9 -64 37 -65 128
-1 67 -3 77 -19 77 -11 0 -20 9 -23 23 -2 12 -4 2 -2 -23 1 -25 0 -37 -2 -27
-6 24 -29 21 -37 -5 -7 -22 -7 -22 -16 -3 -7 17 -9 15 -9 -12 -1 -17 4 -35 9
-38 7 -4 4 -13 -7 -24 -10 -9 -23 -25 -29 -36 -20 -36 -62 -58 -119 -63 -46
-4 -53 -7 -44 -18 6 -8 18 -14 25 -14 10 0 14 -13 14 -45 l0 -45 -45 0 -45 0
0 -174 c0 -98 4 -176 9 -178 6 -2 3 -26 -5 -58 -8 -30 -14 -66 -14 -80 -1 -35
-33 -101 -64 -129 -32 -30 -32 -40 -5 -75 18 -23 20 -32 11 -51 -10 -21 -8
-24 15 -27 15 -2 28 -9 31 -16 3 -9 -3 -11 -22 -6 -30 7 -46 -17 -26 -41 10
-12 16 -13 27 -4 7 7 17 9 21 5 7 -7 -24 -36 -39 -36 -4 0 -14 7 -23 15 -14
14 -17 13 -32 -9 -16 -26 -34 -123 -38 -206 -2 -55 -10 -70 -40 -70 -29 0 -46
18 -47 50 -1 27 -4 22 -13 -22 -5 -21 -12 -28 -31 -28 -16 0 -25 -6 -25 -15 0
-8 -4 -15 -9 -15 -6 0 -11 24 -13 53 -3 51 -4 52 -35 55 -32 3 -33 2 -33 -37
0 -23 -4 -41 -10 -41 -5 0 -10 18 -10 40 0 22 -4 40 -9 40 -5 0 -7 -9 -4 -20
5 -17 0 -20 -26 -20 -17 0 -31 -4 -31 -9 0 -17 20 -23 35 -11 7 6 16 7 19 2 8
-14 -4 -22 -35 -22 -33 0 -51 26 -42 61 8 33 -9 15 -23 -24 -15 -45 -31 -44
-50 2 -16 41 -27 47 -71 35 -18 -5 -23 -14 -23 -41 l0 -34 -52 3 -53 3 -3 38
c-4 49 -27 44 -27 -6 0 -21 -5 -37 -11 -37 -14 0 -22 18 -19 47 1 12 -4 24
-12 27 -9 4 -13 -5 -13 -34 0 -22 -4 -40 -10 -40 -5 0 -10 16 -10 35 0 23 -5
35 -14 35 -15 0 -26 -21 -26 -51 0 -10 -4 -19 -10 -19 -5 0 -10 20 -10 45 0
37 3 45 19 45 10 0 21 6 24 14 8 20 15 108 22 256 3 69 11 168 16 220 6 52 10
146 10 208 l0 112 24 0 c22 0 25 4 25 35 0 31 -3 35 -25 35 -21 0 -25 5 -25
28 0 43 -12 55 -44 42 -15 -5 -38 -10 -52 -10 -13 0 -24 -4 -24 -10 0 -5 -8
-10 -17 -10 -15 1 -15 3 5 20 22 18 22 19 2 25 -30 9 -110 14 -108 7 5 -16
-24 -52 -42 -52 -15 0 -20 7 -20 25 0 14 6 25 14 25 7 0 25 9 39 20 14 11 32
20 40 20 23 0 27 13 10 35 -14 20 -14 20 -33 -3 -26 -31 -70 -40 -70 -13 0 24
-65 35 -86 13 -12 -11 -14 -11 -14 1 0 9 -2 21 -5 29 -3 7 18 39 46 71 33 37
45 57 35 57 -9 0 -16 -5 -16 -10 0 -6 -6 -10 -12 -9 -7 1 -30 -1 -50 -5 -58
-12 -108 1 -144 39 -22 24 -37 32 -52 28 -17 -4 -19 -9 -12 -28 7 -18 4 -25
-13 -33 l-22 -11 23 0 c18 -1 23 -6 22 -23 -4 -48 0 -68 15 -68 18 0 19 -11 3
-45 -15 -34 -7 -39 42 -24 38 12 57 29 59 54 0 6 14 13 31 16 28 6 30 4 30
-22 0 -15 -4 -31 -10 -34 -5 -3 -10 -14 -10 -25 0 -24 -22 -32 -95 -34 -66 -3
-98 -17 -114 -53 -15 -33 -16 -33 34 -33 25 0 45 5 45 10 0 6 8 10 18 9 10 0
12 -3 5 -6 -7 -2 -13 -11 -13 -18 0 -7 -15 -17 -32 -20 -64 -14 -99 -77 -68
-125 8 -13 -3 -29 -21 -30 -4 0 -7 43 -8 96 -1 52 -5 103 -8 112 -19 52 -80
75 -132 49 l-31 -15 0 54 0 54 -46 0 -45 0 2 -187 c1 -178 0 -188 -17 -185
-28 6 -31 12 -12 26 10 7 15 16 12 19 -8 8 -8 89 1 110 9 23 0 33 -18 19 -17
-14 -57 -4 -57 14 0 9 11 14 30 14 55 0 25 62 -39 81 -88 26 -171 -14 -171
-82 0 -39 33 -66 96 -79 35 -7 54 -16 54 -26 0 -19 -44 -18 -60 1 -7 8 -22 15
-34 15 -12 0 -28 6 -35 13 -11 10 -13 9 -8 -5 4 -12 1 -18 -9 -18 -9 0 -14 -6
-11 -12 22 -52 34 -68 52 -68 11 0 27 -5 35 -10 13 -8 13 -10 -2 -10 -18 0
-34 -18 -25 -27 8 -7 77 17 77 27 0 4 9 10 19 13 17 4 19 2 10 -21 -5 -14 -7
-38 -4 -54 5 -21 3 -28 -9 -28 -9 0 -16 -6 -16 -14 0 -7 -10 -16 -22 -20 -21
-5 -20 -7 14 -26 45 -24 49 -24 42 -6 -3 8 -1 17 5 20 5 3 12 -7 16 -24 4 -16
13 -30 21 -30 17 0 19 -26 2 -33 -7 -3 2 -6 20 -6 18 -1 31 3 27 8 -3 5 -1 12
4 15 5 4 12 2 16 -4 10 -16 45 -12 45 5 0 8 7 15 15 15 8 0 15 -3 15 -6 0 -10
-33 -39 -59 -51 -14 -6 -20 -12 -13 -12 6 -1 12 -14 12 -29 0 -20 7 -32 23
-39 22 -11 22 -11 -8 -24 -29 -12 -29 -13 -7 -17 14 -2 22 -9 19 -16 -3 -8 4
-11 22 -8 22 3 33 -3 54 -31 l26 -35 -24 -18 c-28 -21 -32 -34 -11 -34 8 0 16
-7 20 -15 4 -10 -1 -15 -14 -15 -11 0 -20 5 -20 10 0 6 -4 10 -10 10 -17 0
-11 -28 8 -40 16 -9 15 -11 -5 -29 -28 -23 -29 -58 -3 -91 23 -30 26 -52 5
-44 -9 4 -19 -3 -26 -19 -6 -14 -22 -30 -36 -36 -21 -9 -23 -14 -13 -26 10
-12 9 -15 -6 -16 -12 0 -4 -8 21 -19 45 -21 69 -25 60 -10 -3 6 1 10 10 10 10
0 15 -7 13 -17 -2 -10 -5 -17 -8 -15 -3 2 -17 -1 -32 -7 -23 -9 -28 -8 -28 4
0 9 -10 15 -25 15 -14 0 -25 -4 -25 -10 0 -5 7 -10 16 -10 10 0 14 -6 10 -17
-3 -10 -8 -36 -11 -58 -6 -36 -5 -38 8 -22 8 9 26 17 41 17 18 0 25 4 20 12
-5 8 -2 9 12 4 10 -5 27 -10 36 -13 10 -3 19 -18 21 -37 3 -25 4 -23 5 12 2
39 4 42 17 28 8 -8 15 -28 15 -45 0 -21 5 -31 15 -31 10 0 15 11 15 35 0 19 5
35 10 35 6 0 10 -20 10 -45 0 -45 0 -45 -34 -45 -19 0 -37 6 -39 13 -4 9 -8 8
-17 -3 -9 -11 -13 -12 -17 -2 -5 14 -33 17 -33 3 0 -5 -6 -11 -14 -14 -10 -4
-13 3 -12 26 1 40 -18 48 -22 10 -2 -15 -10 -32 -18 -36 -19 -11 -18 -27 2
-27 12 0 14 -7 9 -30 -5 -22 -3 -30 7 -30 10 0 9 -3 -2 -10 -8 -5 -12 -12 -9
-15 8 -8 39 5 39 16 0 5 5 9 10 9 19 0 6 -35 -15 -40 -11 -3 -21 -16 -23 -28
-2 -12 -9 -22 -15 -22 -7 0 -6 -5 3 -11 11 -8 12 -12 3 -16 -16 -6 -17 -50 -1
-55 6 -2 8 -9 4 -16 -13 -21 -36 -1 -36 33 0 19 -4 37 -10 40 -6 4 -10 -10
-10 -34 0 -49 -17 -55 -22 -8 -2 20 -8 32 -18 32 -10 0 -16 -12 -18 -32 -4
-36 -22 -46 -22 -13 0 11 -7 20 -15 20 -8 0 -12 -6 -9 -13 3 -8 -2 -20 -11
-27 -20 -16 -61 0 -68 27 -2 10 -4 7 -3 -7 2 -24 -1 -26 -46 -28 l-48 -2 0 34
c0 50 9 66 36 66 14 0 24 6 24 14 0 15 -35 11 -58 -7 -9 -7 -16 -7 -24 1 -9 9
-9 12 1 12 16 0 10 42 -6 48 -7 2 -13 -3 -13 -12 0 -9 -5 -16 -12 -16 -6 0 -8
3 -5 6 3 4 2 15 -4 26 -11 21 -33 14 -25 -9 6 -15 -15 -43 -33 -43 -16 0 -13
20 4 26 8 4 15 17 15 31 0 18 -4 24 -15 19 -9 -3 -15 0 -15 9 0 8 -7 15 -16
15 -9 0 -14 6 -11 13 2 6 10 12 18 12 8 0 14 -6 14 -12 0 -26 20 -13 26 16 5
22 3 28 -7 24 -8 -3 -14 0 -14 6 0 6 -9 11 -20 11 -12 0 -20 -7 -20 -16 0 -9
-8 -22 -17 -29 -16 -12 -16 -14 1 -30 12 -13 14 -21 7 -28 -16 -16 -13 -37 5
-37 9 0 14 -6 12 -12 -7 -21 -53 -16 -52 4 1 10 -2 16 -6 13 -15 -9 -22 15 -9
31 18 22 7 25 -20 3 -17 -14 -21 -22 -13 -32 6 -7 8 -24 5 -37 -5 -20 -3 -22
15 -18 17 5 23 1 28 -18 6 -24 6 -24 23 -3 13 16 29 20 84 21 76 1 87 -6 87
-58 0 -26 -5 -33 -25 -38 -29 -7 -24 -26 6 -26 21 0 25 -15 7 -26 -6 -4 -14
-2 -16 4 -2 7 -10 12 -18 12 -8 0 -14 6 -14 13 0 18 -37 39 -46 26 -3 -6 -2
-15 4 -21 6 -6 8 -17 5 -24 -3 -8 0 -14 6 -14 6 0 11 -6 11 -12 0 -9 -16 -13
-45 -13 -25 0 -45 2 -45 5 1 12 26 35 39 35 8 0 16 5 18 12 3 7 -4 11 -16 10
-12 -1 -21 -5 -21 -9 0 -4 -5 -8 -11 -8 -5 0 -9 10 -7 23 2 13 -2 22 -9 21 -7
-1 -24 -2 -38 -2 -22 -2 -25 -6 -19 -27 4 -15 2 -25 -5 -25 -6 0 -11 -12 -12
-27 0 -16 -3 -22 -6 -15 -6 16 -21 15 -40 -3 -20 -21 -30 -11 -12 11 8 10 14
27 15 38 1 12 5 29 9 39 7 17 6 18 -14 6 -12 -8 -19 -19 -17 -26 3 -7 -1 -10
-9 -7 -7 3 -15 14 -18 25 -5 18 -37 22 -53 7 -11 -11 7 -68 22 -68 18 0 18 -8
-1 -26 -8 -9 -15 -26 -15 -38 0 -27 -25 -53 -35 -36 -3 5 -3 15 1 22 5 8 2 9
-10 5 -10 -4 -20 -7 -22 -7 -2 0 -4 -7 -4 -16 0 -8 5 -12 10 -9 6 3 17 -1 26
-9 8 -9 22 -16 30 -16 8 0 14 -5 14 -11 0 -5 5 -7 10 -4 6 4 8 11 5 16 -3 5 0
15 7 22 11 12 14 11 24 -7 8 -16 7 -25 -4 -38 -8 -10 -12 -18 -7 -18 4 0 2 -6
-4 -14 -9 -11 -8 -18 4 -30 9 -9 21 -16 26 -16 5 0 9 -4 9 -10 0 -21 -24 -9
-57 27 -18 21 -33 41 -33 46 0 4 -3 7 -8 7 -4 0 -7 -22 -7 -50 0 -42 -3 -50
-18 -50 -15 0 -16 3 -7 20 9 17 8 20 -10 20 -18 0 -20 -4 -14 -40 4 -25 3 -40
-4 -40 -6 0 -18 -3 -28 -7 -13 -5 -16 -3 -11 10 4 11 -1 17 -16 19 -12 2 -21
9 -20 15 2 7 -4 10 -12 7 -8 -4 -15 -9 -15 -13 0 -4 -7 -16 -15 -27 -15 -18
-15 -18 -10 6 7 29 -9 80 -25 80 -5 0 -10 -9 -10 -20 0 -11 3 -20 8 -20 4 0 8
-15 9 -33 2 -17 11 -38 20 -45 10 -7 27 -21 38 -31 23 -19 56 -35 68 -32 5 1
6 -7 3 -17 -6 -16 -2 -19 19 -14 21 4 24 1 18 -14 -3 -11 -12 -28 -20 -39 -7
-11 -13 -29 -13 -41 0 -19 -4 -21 -27 -15 -32 9 -43 37 -16 44 11 3 8 5 -10 6
-27 1 -28 -1 -22 -31 4 -17 21 -43 37 -58 16 -15 28 -34 27 -41 -1 -8 0 -25 4
-39 16 -69 17 -90 1 -90 -8 0 -12 -5 -9 -10 4 -6 15 -8 26 -5 13 4 19 2 19 -8
0 -8 9 -17 20 -20 11 -3 20 -12 20 -21 0 -9 5 -16 12 -16 7 0 5 -7 -5 -17 -13
-16 -13 -20 -1 -31 9 -8 12 -22 9 -32 -3 -11 1 -30 10 -43 16 -26 11 -37 -27
-50 -10 -4 -18 -13 -18 -22 0 -8 -7 -15 -15 -15 -8 0 -15 7 -15 15 0 8 -5 15
-11 15 -6 0 -9 10 -7 22 4 25 48 37 48 12 0 -8 4 -12 10 -9 5 3 7 19 3 35 -3
18 0 36 7 45 11 13 10 14 -11 6 -15 -5 -24 -16 -23 -30 0 -11 -5 -21 -13 -21
-7 0 -13 5 -13 10 0 6 -7 10 -15 10 -21 0 -30 -47 -14 -76 11 -21 11 -27 0
-33 -7 -5 -21 -6 -31 -4 -10 3 -20 -2 -23 -11 -6 -15 4 -20 41 -19 6 1 12 -5
12 -12 0 -17 54 -24 74 -10 9 7 16 20 16 29 0 21 18 56 29 56 4 0 5 -15 3 -32
-5 -34 -61 -96 -71 -80 -7 10 -47 9 -57 -1 -13 -12 -34 -7 -34 8 0 8 -7 15
-15 15 -18 0 -19 -12 -3 -28 14 -14 11 -18 -22 -26 -14 -3 -19 -3 -12 0 21 10
13 24 -13 24 -26 0 -32 -19 -19 -54 8 -20 43 -21 50 -1 5 11 11 12 25 4 10 -5
19 -13 19 -17 0 -9 -49 -32 -69 -32 -9 0 -25 -7 -35 -15 -11 -8 -30 -15 -43
-15 -14 0 -23 -6 -23 -15 0 -17 16 -20 25 -5 3 5 19 10 34 10 24 0 28 -4 28
-27 0 -16 3 -36 7 -46 7 -16 5 -17 -18 -11 -21 5 -25 3 -20 -10 3 -9 12 -16
19 -16 18 0 25 -91 8 -97 -7 -3 -13 -11 -13 -18 0 -19 -28 -45 -50 -45 -10 0
-20 10 -23 22 -7 26 1 38 12 19 5 -7 14 -10 20 -7 15 10 14 36 -1 36 -9 0 -8
3 2 10 12 7 12 12 2 22 -6 6 -12 16 -12 20 0 13 28 9 33 -4 4 -10 6 -10 6 -1
1 19 -50 65 -66 59 -11 -5 -14 0 -10 22 2 15 2 21 0 15 -5 -14 -16 -17 -26 -6
-4 3 0 14 9 24 12 13 13 22 5 38 -15 26 -14 28 9 34 26 7 28 50 3 45 -10 -2
-17 -10 -15 -16 1 -7 -5 -12 -13 -12 -18 0 -18 2 -3 35 9 20 9 28 0 37 -9 9
-16 7 -28 -10 -18 -26 -34 -29 -34 -6 0 13 -7 15 -37 10 -21 -4 -33 -3 -27 1
20 14 21 67 2 71 -9 2 -19 -5 -23 -17 -3 -12 -11 -21 -17 -21 -5 0 -8 7 -4 15
3 9 0 15 -9 15 -19 0 -30 -21 -16 -29 13 -8 5 -41 -10 -41 -4 0 -6 -6 -3 -14
3 -8 1 -17 -4 -20 -14 -8 -35 21 -29 38 3 8 -1 17 -10 20 -14 6 -14 8 1 24 9
10 16 22 16 25 0 17 -23 4 -53 -28 -35 -38 -47 -43 -47 -20 0 29 -15 15 -16
-15 -1 -32 21 -41 43 -19 7 7 13 7 17 0 4 -5 -3 -15 -14 -21 -11 -6 -20 -17
-20 -25 0 -21 -27 -19 -52 5 -24 22 -38 19 -31 -8 3 -13 14 -17 46 -17 23 1
51 4 63 8 14 5 25 2 33 -7 9 -11 7 -15 -11 -19 -17 -5 -20 -9 -11 -18 8 -8 9
-18 2 -31 -6 -12 -6 -18 0 -18 6 0 8 -7 5 -15 -4 -8 -12 -15 -19 -15 -20 0
-26 27 -9 41 12 10 12 13 -3 25 -10 7 -26 14 -35 14 -9 0 -21 7 -26 15 -7 14
-11 14 -39 0 -17 -8 -37 -22 -43 -30 -8 -9 -21 -13 -31 -10 -12 4 -21 1 -25
-9 -10 -25 -24 -19 -24 11 0 21 -3 24 -12 15 -7 -7 -13 -18 -14 -25 0 -7 -2
-20 -2 -29 -1 -10 -13 -20 -27 -24 -29 -7 -32 -21 -7 -40 16 -13 16 -15 -1
-28 -24 -19 -5 -29 27 -15 20 10 30 9 50 -5 14 -9 32 -16 41 -16 8 0 15 -4 15
-9 0 -19 -29 -19 -60 0 -36 22 -47 20 -32 -8 8 -13 7 -22 -5 -36 -15 -16 -15
-19 3 -33 16 -14 17 -15 2 -10 -24 7 -23 -16 1 -45 18 -21 19 -22 15 -4 -4 17
0 20 26 21 16 1 30 -3 30 -9 0 -6 9 -2 20 8 22 20 26 35 10 35 -5 0 -10 -7
-10 -15 0 -8 -4 -15 -10 -15 -5 0 -10 5 -10 10 0 6 -6 10 -14 10 -13 0 -30 39
-21 49 3 2 13 -3 23 -12 23 -21 32 -21 32 -1 0 11 5 14 18 9 9 -4 25 -10 35
-12 10 -3 17 -15 17 -29 0 -13 5 -24 10 -24 6 0 10 5 10 10 0 6 4 10 8 10 5 0
9 -13 10 -30 0 -20 -4 -30 -14 -30 -8 0 -14 5 -14 11 0 5 -5 7 -10 4 -5 -3
-10 1 -10 9 0 21 -16 21 -24 0 -11 -29 -7 -36 19 -30 14 4 25 2 25 -4 0 -5
-11 -10 -25 -10 -21 0 -25 -5 -25 -30 0 -16 5 -30 11 -30 6 0 8 9 4 20 -5 14
-2 20 9 20 9 0 16 -6 16 -12 0 -7 11 0 25 15 29 31 35 33 35 12 0 -8 -11 -25
-25 -39 -14 -14 -21 -28 -15 -31 16 -10 12 -25 -5 -19 -8 4 -15 1 -15 -5 0 -6
7 -11 15 -11 19 0 19 -28 1 -49 -25 -28 -24 -81 1 -81 13 0 14 3 5 12 -16 16
-15 28 2 28 8 0 16 -7 20 -15 3 -8 14 -15 24 -15 26 0 48 -25 31 -36 -6 -4
-16 0 -21 10 -12 22 -25 20 -33 -4 -7 -22 -40 -27 -48 -7 -4 9 -6 9 -6 -1 -1
-8 8 -16 20 -19 17 -5 20 -11 15 -34 -3 -16 -1 -31 4 -34 6 -4 8 -10 5 -15 -3
-5 -1 -11 5 -15 15 -9 12 -47 -5 -69 -16 -21 -18 -17 -15 27 1 15 -5 38 -14
51 -8 13 -12 34 -10 47 5 20 2 19 -16 -8 -12 -18 -25 -33 -28 -34 -49 -5 -82
-2 -82 8 0 6 5 15 10 18 6 4 8 16 4 27 -5 18 -3 20 15 15 11 -3 21 -1 21 3 0
5 2 14 5 22 4 10 -5 13 -35 13 -30 0 -39 -3 -37 -15 2 -12 -8 -14 -45 -12 -29
2 -48 -1 -48 -7 0 -6 7 -11 15 -11 17 0 20 -16 6 -24 -5 -4 -12 0 -15 6 -3 7
-4 0 0 -17 11 -61 9 -80 -9 -93 -32 -24 -8 -45 52 -43 22 1 22 0 -10 -31 -22
-20 -30 -33 -21 -35 7 -3 19 1 27 7 12 10 15 9 15 -3 0 -8 14 -21 30 -29 39
-17 38 -24 -5 -26 -26 -1 -35 3 -35 15 0 12 -3 13 -14 3 -8 -6 -12 -18 -9 -26
4 -11 22 -14 72 -12 46 2 65 -1 64 -9 -2 -8 9 -10 35 -6 40 7 53 18 45 41 -5
11 -1 13 16 7 16 -5 23 -1 29 14 6 16 10 17 24 7 22 -16 8 -37 -25 -39 -20 -2
-27 -9 -31 -31 -7 -33 -1 -46 20 -46 11 0 14 7 10 23 -3 12 -3 16 0 10 3 -7
12 -13 20 -13 8 0 14 -10 14 -25 0 -13 8 -28 18 -34 14 -8 15 -13 5 -30 -17
-28 -6 -51 26 -52 23 -2 24 -2 3 -6 -18 -4 -21 -9 -16 -29 5 -18 1 -26 -12
-31 -11 -3 -22 -11 -26 -17 -4 -6 -12 -5 -21 3 -13 10 -17 9 -25 -5 -10 -19
-32 -11 -32 12 0 16 -9 18 -29 5 -7 -5 -10 -14 -7 -20 5 -7 -4 -11 -25 -11
-28 0 -31 -2 -24 -23 4 -12 7 -34 7 -49 -1 -16 3 -28 8 -28 6 0 10 -5 10 -11
0 -8 -5 -8 -15 1 -21 17 -47 4 -45 -22 1 -13 2 -29 1 -35 -2 -19 -61 -16 -83
4 -20 18 -34 12 -25 -12 6 -13 27 -15 137 -13 71 1 130 6 130 10 0 5 -4 8 -9
8 -5 0 -7 8 -4 19 3 10 0 22 -6 25 -6 4 -11 2 -11 -3 0 -6 -11 -11 -25 -11
-14 0 -25 5 -25 10 0 6 7 10 15 10 8 0 15 5 15 10 0 6 7 10 15 10 8 0 15 7 15
15 0 21 9 19 31 -6 14 -17 17 -31 13 -60 l-7 -39 57 0 c56 0 66 6 45 27 -8 8
-5 14 10 22 12 7 21 20 21 30 0 37 30 91 50 91 10 0 22 -5 26 -11 5 -8 9 -8
14 1 8 13 60 3 60 -12 0 -7 5 -7 13 0 19 16 87 4 80 -14 -3 -8 -15 -14 -28
-14 -19 0 -22 -4 -17 -22 3 -13 10 -26 15 -30 6 -4 4 -13 -6 -23 -34 -34 -22
-45 51 -44 65 1 66 1 37 14 -27 13 -27 14 -7 15 13 0 22 6 22 15 0 8 5 15 11
15 6 0 9 10 7 23 -2 14 -11 23 -26 25 -21 3 -22 5 -7 16 13 9 16 20 10 44 -7
35 -20 37 -78 14 -39 -16 -58 -15 -51 3 4 9 11 15 18 14 38 -5 56 2 56 21 0
11 -4 20 -10 20 -5 0 -10 12 -10 26 0 23 3 25 30 19 24 -5 30 -3 30 10 0 12
-6 16 -20 12 -13 -3 -24 3 -35 19 -8 13 -11 24 -5 24 16 0 12 40 -5 57 -14 14
-14 17 0 32 8 10 15 23 15 29 0 6 8 13 18 15 14 4 15 5 1 6 -9 0 -19 11 -22
23 -7 27 17 88 35 88 8 0 29 13 48 30 27 22 31 29 17 30 -10 0 -26 8 -35 17
-16 16 -16 16 0 10 12 -4 21 0 28 14 12 22 32 17 23 -6 -3 -9 1 -15 11 -15 9
0 16 -4 16 -10 0 -5 -5 -10 -12 -10 -9 0 -9 -3 -1 -11 9 -9 8 -16 -4 -27 -13
-14 -13 -17 9 -33 31 -25 40 -24 32 5 -4 18 -1 25 18 29 l23 7 -23 15 c-27 20
-22 30 18 38 35 8 38 19 10 47 -19 19 -19 20 -2 20 11 0 33 7 51 16 18 9 34
14 36 13 2 -2 6 -20 10 -40 5 -27 2 -40 -10 -53 -10 -9 -15 -20 -11 -23 3 -4
13 2 21 13 13 17 14 17 15 2 0 -10 6 -18 14 -18 20 0 31 -21 16 -30 -8 -5 -7
-9 4 -13 9 -4 16 -18 16 -34 0 -22 3 -25 10 -13 11 18 25 6 34 -33 6 -25 4
-27 -16 -22 -18 5 -33 -4 -66 -35 -30 -29 -42 -36 -42 -24 0 10 -3 15 -6 11
-11 -11 7 -45 27 -50 13 -3 18 -10 14 -17 -4 -7 -18 -9 -33 -5 -23 6 -24 5
-11 -11 11 -13 11 -18 2 -21 -16 -6 -17 -35 -1 -51 9 -9 8 -15 -7 -25 -10 -8
-15 -19 -11 -25 3 -6 2 -13 -4 -17 -6 -4 -10 4 -10 19 0 13 -4 26 -10 28 -6 2
-6 19 1 46 6 29 6 49 -1 63 -6 11 -8 28 -5 39 3 11 1 29 -5 40 -11 21 -11 21
-37 -4 -17 -17 -35 -25 -52 -24 -23 3 -26 0 -23 -27 5 -43 19 -53 33 -22 8 18
20 27 36 27 13 0 22 -4 19 -9 -3 -4 0 -22 7 -40 10 -27 9 -33 -3 -41 -12 -8
-13 -13 -3 -29 12 -18 8 -31 -9 -31 -4 0 -8 7 -8 15 0 8 -5 15 -10 15 -6 0 -8
10 -5 22 3 13 1 30 -5 38 -9 13 -12 12 -23 -5 -18 -30 -26 -64 -16 -70 4 -3 6
-19 2 -35 -3 -19 -1 -30 6 -30 23 0 10 -29 -19 -39 -16 -5 -30 -15 -30 -21 0
-20 30 -42 50 -37 25 6 15 -20 -11 -28 -10 -4 -19 -14 -19 -24 0 -10 -3 -21
-7 -25 -5 -4 -8 -19 -8 -32 -1 -24 0 -24 87 -23 48 1 88 5 88 10 0 12 37 11
45 -1 10 -16 572 -13 579 3 5 9 7 9 12 0 4 -10 43 -13 142 -13 126 0 138 2
150 20 7 11 18 20 26 20 7 0 18 10 24 23 9 18 11 19 11 4 1 -10 -6 -29 -15
-42 l-16 -25 2651 0 c1753 0 2651 3 2651 10 0 6 7 10 15 10 8 0 15 7 15 15 0
9 7 32 15 52 13 30 17 33 30 23 12 -10 15 -10 15 3 0 9 -4 18 -9 21 -9 6 -4
42 9 61 3 6 13 30 20 55 7 25 17 50 21 55 4 6 4 17 -1 25 -6 9 -3 18 8 27 9 7
12 13 6 13 -15 0 -6 50 12 71 8 9 11 19 7 22 -3 4 -8 69 -10 144 -5 154 -7
167 -28 159 -8 -3 -17 -1 -20 4 -5 9 162 15 181 8 4 -2 6 -37 5 -78 -1 -42 3
-89 9 -105 7 -17 14 -59 16 -95 3 -36 18 -159 34 -273 17 -115 30 -213 30
-218 0 -5 61 -9 135 -9 l135 0 0 30 c0 29 -22 187 -56 410 -9 58 -19 143 -24
190 -4 47 -12 96 -19 107 -21 41 -16 43 104 43 94 0 117 -3 121 -15 8 -19 30
-19 38 0 8 22 23 18 30 -7 3 -13 8 -108 12 -213 5 -151 10 -198 23 -227 11
-22 15 -42 10 -50 -9 -14 -7 -30 18 -176 l16 -92 154 0 c84 0 153 3 153 8 0 4
-7 45 -15 92 -8 47 -15 101 -15 120 0 19 -8 49 -18 65 -12 19 -17 43 -14 65 2
22 -10 79 -33 155 -20 66 -41 138 -46 160 -10 41 -49 235 -49 246 0 4 44 10
98 14 125 9 243 32 261 50 11 11 14 39 12 122 -1 59 -7 115 -12 124 -21 41
-118 74 -309 108 -112 20 -302 41 -370 41 -36 0 -70 4 -77 8 -17 11 0 84 29
123 49 64 96 164 112 239 10 41 22 91 27 110 5 19 12 100 16 180 5 127 4 151
-12 183 -10 21 -15 40 -12 43 3 4 -3 23 -14 42 -10 20 -19 46 -19 56 0 19 0
19 14 1 12 -17 17 -18 38 -7 13 7 34 28 46 47 22 32 23 35 7 58 -11 17 -13 27
-6 32 14 8 14 55 1 55 -5 0 -10 7 -10 15 0 8 -6 15 -14 15 -7 0 -16 8 -19 18
-3 9 -15 41 -26 71 -21 56 -21 84 0 37 7 -14 16 -26 21 -26 4 0 8 -9 8 -21 0
-11 5 -29 10 -40 9 -16 14 -17 30 -6 11 6 20 16 20 21 0 5 -3 6 -6 3 -7 -6
-30 30 -54 83 -6 14 -21 35 -32 48 -12 12 -16 22 -10 22 7 0 12 -4 12 -10 0
-5 7 -10 15 -10 9 0 15 10 15 26 0 59 33 250 46 265 8 9 11 18 8 22 -4 3 -1
20 5 38 6 17 14 99 17 182 4 83 12 189 18 235 l11 85 61 13 c33 6 90 15 127
19 86 9 100 24 93 97 -20 206 -40 262 -113 305 -44 25 -56 28 -134 26 -47 -1
-115 -10 -150 -20 -50 -13 -103 -17 -236 -18 -203 0 -200 -2 -281 120 -66 99
-83 109 -176 101 -39 -4 -102 -9 -139 -12 -81 -5 -80 -11 -12 117 50 91 56
140 34 263 -9 51 -16 65 -42 85 -22 16 -33 33 -34 53 -1 17 -7 35 -12 42 -5 6
-11 29 -13 50 -3 42 -23 60 -31 29 -3 -10 -5 11 -6 46 -1 56 -6 71 -37 117
-19 30 -37 54 -40 54 -3 0 -3 -13 1 -30 7 -34 -1 -39 -21 -12 -10 12 -16 14
-21 6 -6 -9 -11 -8 -20 1 -9 10 -9 14 1 18 20 8 7 59 -15 64 -11 3 -19 9 -19
14 0 5 11 3 25 -3 14 -6 27 -9 30 -6 9 9 -6 38 -20 38 -7 0 -15 9 -18 20 -4
17 -11 19 -31 14 -16 -4 -26 -2 -26 5 0 6 5 11 10 11 6 0 10 6 10 13 0 14 -47
32 -115 42 -22 4 -44 10 -50 13 -5 3 -34 8 -63 9 -29 2 -71 12 -93 24 -29 14
-56 19 -96 18 -40 -2 -59 2 -67 12 -20 27 -64 51 -84 45 -13 -4 -25 3 -40 24
-12 16 -22 33 -22 38 0 22 -63 71 -100 77 -35 6 -42 12 -60 53 -37 84 -37 90
7 98 48 8 102 35 127 63 12 13 21 43 25 85 4 41 14 72 25 85 29 32 29 112 0
171 -13 27 -34 55 -46 61 -13 7 -37 26 -55 42 l-32 30 20 28 c29 42 51 131 35
144 -7 6 -20 30 -30 55 -10 25 -26 54 -36 65 -10 11 -20 25 -21 30 -3 18 -46
79 -68 99 -11 11 -21 23 -21 28 0 9 -56 88 -83 118 -8 8 -22 27 -32 43 l-17
27 -529 0 -529 0 0 -24z m525 -911 c6 -6 15 -10 22 -8 13 5 23 -9 40 -57 19
-53 16 -80 -13 -106 -40 -38 -144 -29 -144 11 0 8 -4 15 -8 15 -5 0 -13 10
-19 23 -11 25 9 99 35 129 16 19 69 15 87 -7z m280 -15 c4 -6 11 -8 16 -5 13
8 11 -19 -3 -50 -18 -39 -34 -30 -28 15 1 12 -1 13 -11 3 -7 -7 -21 -13 -31
-13 -31 0 -20 -16 25 -36 40 -18 42 -21 45 -67 2 -27 -2 -55 -9 -63 -6 -7 -8
-21 -5 -30 5 -13 2 -15 -16 -10 -13 3 -33 6 -45 6 -34 0 -77 69 -68 110 5 24
10 29 20 20 18 -15 32 45 15 65 -18 22 5 45 44 45 24 0 27 3 16 10 -12 8 -11
10 7 10 12 0 25 -5 28 -10z m-3 -334 c0 -11 0 -29 0 -39 -1 -11 3 -17 10 -14
7 2 12 9 11 14 -1 6 13 10 32 9 41 -1 85 -37 85 -70 0 -27 -51 -76 -78 -76
-13 0 -10 -6 11 -25 51 -48 28 -109 -38 -103 -30 2 -43 9 -54 30 -13 22 -13
30 -2 51 8 14 24 28 37 31 23 6 35 36 14 36 -5 0 -14 18 -20 40 -11 40 -23 50
-35 30 -10 -16 -97 -1 -112 18 -7 9 -13 30 -13 47 0 37 14 58 55 78 28 14 31
13 62 -10 18 -14 34 -35 35 -47z m1314 -601 c10 -14 17 -15 27 -7 8 7 17 9 20
5 4 -3 7 4 7 17 0 19 2 20 15 10 8 -7 15 -26 15 -42 0 -16 4 -37 8 -46 5 -9 7
-39 4 -67 -4 -38 -7 -45 -13 -30 -7 19 -8 19 -8 -1 -1 -13 -9 -24 -22 -27 -12
-3 -18 -10 -14 -16 3 -6 1 -11 -5 -11 -15 0 -4 36 22 73 19 27 19 27 -1 27
-12 0 -21 6 -21 15 0 9 -7 18 -15 21 -8 4 -13 10 -10 14 9 15 -7 40 -25 40
-11 0 -22 5 -25 10 -3 6 -14 10 -24 10 -10 0 -27 10 -39 23 l-22 23 56 -11
c33 -6 62 -19 70 -30z m-1013 -240 c12 1 14 0 5 -2 -10 -2 -18 -9 -18 -14 0
-14 27 -11 42 5 11 10 19 11 33 3 19 -10 19 -10 0 -17 -18 -6 -17 -8 8 -30 16
-14 27 -34 27 -49 l0 -25 -30 29 -30 29 0 -32 c0 -18 -4 -32 -10 -32 -5 0 -10
6 -10 14 0 8 -5 16 -11 18 -9 3 -9 10 0 27 18 32 6 38 -27 14 -19 -14 -28 -30
-30 -57 -3 -31 -6 -35 -18 -25 -8 6 -14 8 -14 5 0 -4 -9 -2 -21 5 -17 9 -25 7
-43 -10 -26 -25 -36 -26 -36 -7 0 8 8 17 19 21 10 3 26 14 36 25 10 11 26 20
35 20 9 0 22 11 28 25 6 14 19 25 28 25 12 0 15 6 10 28 -3 15 -3 22 0 16 2
-6 15 -10 27 -9z m-3993 -1047 c0 -41 1 -42 13 -18 18 36 63 40 78 6 10 -20 9
-30 -4 -50 -15 -22 -22 -24 -68 -21 -28 2 -62 0 -75 -5 -21 -8 -24 -6 -30 24
-9 52 -2 71 29 74 15 2 27 9 27 18 0 8 7 14 15 14 11 0 15 -11 15 -42z m6090
-120 c0 -40 -64 -304 -92 -380 -5 -14 -9 -41 -7 -60 1 -18 -2 -41 -6 -51 -4
-9 -3 -23 3 -30 10 -12 -9 -185 -23 -207 -5 -8 -14 -6 -30 4 -16 11 -26 12
-31 5 -3 -6 -26 12 -53 42 -54 63 -86 95 -128 130 -24 21 -30 31 -26 53 5 25
8 26 37 19 29 -7 52 -8 130 -3 40 2 56 29 57 95 0 10 3 24 8 30 8 11 5 159 -5
241 -5 43 -10 53 -36 69 -38 22 -26 31 63 43 95 14 139 14 139 0z m-5882 -166
c3 -9 -3 -11 -24 -6 -19 5 -25 4 -20 -5 4 -6 12 -11 18 -11 6 0 20 -8 31 -17
11 -10 17 -13 14 -6 -13 21 11 63 36 63 51 0 64 -47 15 -53 -32 -4 -32 -4 5
-5 30 -2 37 2 37 16 0 26 20 42 52 42 28 0 28 -1 28 -60 0 -33 -4 -60 -10 -60
-5 0 -10 7 -10 15 0 17 -13 18 -142 17 -50 -1 -90 3 -94 9 -10 16 4 23 20 10
10 -8 16 -9 21 -1 3 5 2 10 -2 10 -21 0 -44 26 -37 43 8 21 55 20 62 -1z
m1434 -262 c9 0 21 -7 28 -15 12 -14 15 -14 30 0 21 19 44 19 61 -1 11 -13 9
-14 -13 -9 -21 5 -27 2 -33 -15 -9 -29 9 -48 30 -30 8 7 19 10 23 6 4 -4 -2
-14 -12 -21 -23 -18 -56 -3 -64 28 -5 20 -6 20 -13 1 -14 -34 -10 -44 19 -44
47 0 59 -17 16 -22 -57 -7 -208 3 -192 13 10 6 9 11 -5 22 -23 16 -20 65 6 81
39 25 76 -43 42 -78 -15 -15 -14 -16 10 -16 25 0 27 3 24 38 -1 20 -1 51 0 67
1 27 3 28 15 13 7 -10 20 -18 28 -18z m2062 -406 c23 -9 20 -41 -5 -47 -16 -4
-20 -11 -16 -27 5 -19 2 -21 -18 -18 -15 3 -26 0 -29 -9 -11 -29 -6 -43 17
-44 19 0 18 -2 -10 -16 -24 -12 -31 -22 -30 -41 1 -14 -4 -27 -11 -29 -9 -4
-11 8 -6 51 7 62 -3 72 -41 36 -17 -16 -27 -18 -50 -11 -25 8 -26 9 -7 10 13
1 22 7 22 17 0 11 -6 15 -20 11 -25 -6 -26 5 -2 26 17 15 72 13 72 -3 0 -17
48 -7 53 11 4 15 1 16 -21 8 -20 -8 -28 -7 -34 6 -5 8 -16 15 -25 15 -14 0
-14 3 3 21 l18 20 8 -21 c10 -26 41 -20 78 16 27 26 30 27 54 18z m393 -104
c4 0 15 7 25 17 24 21 25 -3 1 -29 -29 -32 -6 -31 40 1 43 32 77 34 77 5 0 -8
6 -14 13 -14 27 0 54 -85 30 -94 -8 -3 -11 -11 -7 -17 3 -6 0 -16 -7 -21 -10
-7 -7 -7 9 -3 12 4 22 2 22 -4 0 -6 7 -8 15 -5 11 5 12 10 5 18 -7 9 -1 21 20
41 l29 28 36 -34 c26 -25 35 -40 32 -57 -2 -12 0 -25 5 -28 5 -3 6 -14 3 -24
-3 -10 -1 -21 5 -25 7 -4 9 -18 5 -32 -5 -23 -4 -25 20 -19 14 4 25 3 25 -2 0
-4 -10 -9 -22 -9 -13 -1 -28 -9 -34 -18 -7 -10 -15 -12 -18 -6 -4 6 -13 8 -21
5 -8 -4 -18 1 -21 10 -3 9 -12 16 -20 16 -16 0 -19 -16 -4 -25 6 -3 10 -21 10
-40 0 -19 5 -37 10 -40 6 -3 10 -13 10 -20 0 -20 -28 -7 -35 16 -4 10 -15 19
-26 19 -23 0 -24 -8 -2 -32 15 -17 15 -18 -3 -18 -11 0 -25 5 -32 12 -9 9 -12
8 -12 -5 0 -9 -4 -17 -9 -17 -5 0 -12 -8 -14 -17 -4 -14 -5 -12 -6 5 -1 24
-16 30 -25 10 -4 -7 -4 2 -1 20 4 27 1 32 -16 32 -11 0 -18 4 -15 9 3 5 0 8
-7 7 -6 0 -13 3 -14 9 -2 5 3 10 10 11 6 0 21 2 31 2 18 2 18 3 2 21 -20 22
-54 33 -62 20 -9 -16 -20 -10 -20 11 0 12 7 20 17 20 9 0 19 9 22 20 5 21 33
37 44 26 4 -3 1 -12 -5 -18 -17 -17 -15 -58 2 -58 8 0 22 -10 31 -22 16 -23
16 -22 10 12 -12 74 -44 143 -63 135 -22 -8 -35 5 -21 21 10 12 9 18 -3 31
-14 13 -21 13 -54 3 -35 -12 -39 -11 -56 10 -10 12 -15 27 -11 33 4 6 0 8 -9
4 -15 -5 -38 9 -38 24 0 10 60 5 60 -6 0 -5 9 -21 20 -35 12 -15 18 -18 14 -7
-3 9 -1 17 5 17 6 0 11 -4 11 -10 0 -6 11 -5 26 2 23 11 29 10 44 -10 10 -12
21 -28 23 -35 4 -8 8 -8 14 -2 4 6 15 10 23 10 21 0 25 57 5 95 -9 17 -20 28
-25 25 -5 -3 0 -22 11 -42 23 -41 19 -75 -6 -49 -8 8 -18 29 -21 45 -7 35 -36
42 -53 14 -6 -10 -11 -14 -11 -9 0 5 -6 4 -13 -2 -9 -8 -23 -2 -52 24 -38 33
-39 35 -17 40 15 4 22 14 23 33 l2 26 4 -27 c2 -16 7 -28 10 -28z m-513 -79
c7 -10 -37 -25 -74 -26 -18 0 -26 -6 -28 -23 -4 -24 29 -45 36 -24 6 19 30 14
42 -9 9 -16 18 -19 36 -15 13 4 30 2 37 -4 6 -6 21 -17 31 -24 18 -12 17 -13
-12 -12 -18 0 -32 4 -32 9 0 4 -5 7 -11 7 -5 0 -7 -4 -4 -10 3 -5 1 -10 -4
-10 -6 0 -11 7 -11 15 0 25 -38 18 -42 -7 -2 -17 -10 -23 -27 -23 -14 0 -26
-6 -29 -13 -2 -6 -13 -12 -24 -12 -15 0 -18 5 -13 19 4 14 0 21 -15 26 -30 10
-24 25 10 25 19 0 30 5 30 14 0 17 -22 26 -48 19 -17 -4 -20 -1 -15 16 3 11 9
18 14 15 5 -3 21 3 36 13 65 43 105 55 117 34z m2190 -12 c10 9 15 8 19 -3 3
-7 1 -18 -5 -24 -10 -10 -14 -79 -4 -89 3 -3 13 -3 22 1 12 5 15 14 11 36 -8
38 8 48 31 20 17 -21 19 -21 35 -5 16 15 17 15 17 -2 0 -24 -16 -48 -31 -48
-7 0 -14 -6 -17 -14 -3 -10 0 -12 12 -8 23 9 46 -2 39 -19 -3 -8 -9 -14 -15
-14 -5 0 -6 5 -3 10 3 6 -3 10 -14 10 -11 0 -25 -8 -30 -19 -7 -13 -18 -17
-36 -14 -14 3 -25 9 -25 14 0 5 -10 9 -22 10 -13 0 -17 3 -10 6 22 9 13 21
-38 49 -27 15 -50 31 -50 36 0 5 -5 6 -10 3 -13 -8 -40 13 -40 31 0 19 20 17
44 -4 12 -10 38 -29 60 -42 35 -21 37 -21 28 -4 -6 11 -8 32 -5 47 3 16 1 27
-6 27 -6 0 -11 -8 -11 -17 0 -15 -2 -16 -10 -3 -13 20 -13 43 0 35 6 -3 10 -1
10 6 0 8 7 5 20 -6 15 -14 23 -15 34 -6z m-2450 -142 c-4 -12 -15 -28 -25 -35
-11 -7 -19 -20 -19 -28 0 -17 26 -19 34 -1 3 6 4 0 1 -15 -4 -21 0 -31 20 -44
14 -9 25 -25 25 -36 0 -17 5 -19 48 -12 26 3 55 10 64 15 23 13 28 11 28 -7 0
-14 2 -15 17 -3 15 13 15 14 0 17 -10 2 -17 8 -17 14 0 6 -12 8 -30 5 -17 -4
-30 -2 -30 3 0 6 9 11 20 12 11 0 24 1 29 2 4 1 20 -8 34 -19 l26 -19 -21 -24
c-26 -27 -18 -47 26 -72 25 -14 28 -13 40 3 14 19 31 24 20 6 -4 -7 -1 -10 7
-7 8 3 14 15 13 28 -1 22 0 21 25 -8 14 -16 36 -33 47 -36 12 -4 24 -16 27
-26 3 -14 14 -20 31 -20 14 0 26 4 26 9 0 5 16 15 36 21 19 7 40 20 47 31 6
10 16 19 21 19 4 0 3 -7 -4 -15 -22 -27 -5 -37 24 -14 l29 22 -12 -21 c-6 -12
-18 -22 -26 -22 -31 0 -7 -36 40 -61 27 -15 34 -15 66 -2 29 11 36 19 32 34
-3 10 0 19 6 19 6 0 11 -4 11 -10 0 -5 5 -10 10 -10 6 0 10 12 10 27 0 36 17
18 22 -22 2 -24 9 -32 35 -40 18 -5 36 -17 39 -27 6 -19 54 -26 54 -8 0 6 11
10 24 10 35 0 56 10 56 27 0 11 -7 13 -24 9 -14 -3 -27 -2 -30 3 -3 5 10 12
29 15 21 4 41 17 51 31 17 26 38 32 49 15 3 -6 -6 -15 -22 -21 -27 -11 -27
-11 -7 -19 21 -8 21 -10 7 -57 -8 -26 -17 -54 -19 -62 -2 -7 -11 -10 -20 -7
-9 4 -23 1 -31 -5 -11 -10 -15 -8 -20 10 -5 18 -10 21 -39 15 -27 -5 -43 -1
-74 20 -47 31 -58 32 -76 9 -13 -17 -14 -17 -20 5 -7 26 -3 25 -58 11 -39 -10
-47 -8 -88 17 -33 20 -44 32 -40 46 6 24 -13 23 -51 -4 -17 -12 -46 -22 -65
-22 -24 0 -40 7 -52 22 -23 28 -38 28 -50 0 -8 -21 -9 -20 -9 10 -1 27 -4 32
-18 29 -69 -19 -88 -17 -120 13 -28 26 -53 38 -53 26 0 -2 -3 -11 -6 -19 -3
-9 3 -16 15 -20 15 -4 21 -13 21 -34 0 -16 6 -35 13 -42 10 -10 8 -16 -10 -28
-13 -9 -23 -19 -23 -24 0 -5 10 -10 23 -10 l22 -2 -23 -4 c-13 -3 -26 -11 -29
-19 -3 -8 -15 -14 -28 -14 -18 0 -24 -7 -27 -32 -4 -23 0 -36 11 -44 12 -10
13 -15 3 -27 -8 -9 -9 -18 -3 -21 5 -3 11 -1 13 5 2 6 33 12 68 14 94 5 182
-41 150 -80 -13 -16 0 -28 16 -14 8 6 30 11 50 11 27 0 38 5 41 19 4 13 9 16
17 10 6 -5 29 -11 51 -14 22 -3 52 -9 67 -12 27 -7 122 14 115 25 -2 3 -9 20
-16 38 -7 17 -17 32 -23 32 -5 0 -7 4 -3 10 3 5 13 6 22 3 20 -8 43 22 43 54
0 27 26 41 43 24 9 -9 9 -16 -1 -31 -24 -39 -9 -68 18 -35 7 9 15 13 18 10 3
-3 -6 -15 -20 -27 -14 -13 -28 -35 -32 -51 -6 -27 -6 -27 36 -21 77 10 187 73
228 129 15 21 87 48 101 39 13 -8 -13 -43 -28 -37 -7 3 -13 -1 -13 -8 0 -12
-2 -11 -9 0 -7 11 -12 10 -22 -8 -8 -11 -19 -21 -26 -21 -18 0 -16 -17 2 -24
18 -6 20 -37 3 -54 -23 -23 20 -24 51 -1 32 23 39 43 21 54 -5 3 -10 11 -10
17 0 5 8 0 18 -12 13 -16 23 -20 33 -14 22 13 42 11 72 -9 15 -10 27 -16 27
-13 0 3 10 -4 22 -16 18 -18 23 -33 21 -70 -2 -42 0 -48 18 -48 11 0 22 6 25
14 3 8 19 19 35 25 33 11 38 5 12 -15 -16 -12 -15 -13 11 -14 21 0 27 4 23 15
-13 33 31 24 73 -14 11 -11 12 -15 2 -19 -16 -5 -15 -24 4 -48 15 -18 15 -18
11 9 -2 15 0 27 4 27 5 0 9 -6 10 -12 0 -7 3 -25 5 -40 3 -21 1 -28 -11 -28
-19 0 -19 -7 -1 -26 17 -16 46 -19 46 -4 0 6 -4 10 -10 10 -5 0 -10 5 -10 11
0 8 4 9 13 0 8 -6 17 -8 20 -5 10 10 87 11 87 1 0 -5 10 -18 21 -28 15 -13 20
-26 17 -44 -4 -17 0 -29 11 -35 9 -5 11 -10 4 -10 -9 0 -10 -7 -3 -26 13 -33
13 -34 -5 -28 -12 5 -13 2 -7 -17 10 -27 32 -37 32 -15 0 19 36 40 55 32 8 -3
17 -1 21 5 9 15 34 -9 34 -33 0 -10 7 -21 15 -24 11 -5 12 -11 5 -24 -7 -13
-6 -20 3 -24 8 -3 6 -10 -8 -21 -11 -9 -19 -23 -17 -31 2 -9 -2 -22 -9 -30
-12 -15 -6 -44 10 -44 5 0 11 10 13 22 2 16 12 24 36 29 23 5 32 3 32 -6 0 -7
7 -16 16 -19 13 -5 15 -14 10 -41 -6 -28 -4 -35 9 -35 11 0 15 -10 15 -36 0
-28 3 -35 15 -30 10 4 15 -1 15 -14 0 -11 7 -20 15 -20 8 0 15 -5 15 -10 0
-17 -27 -65 -44 -79 -9 -8 -16 -28 -16 -46 0 -52 -8 -63 -71 -91 -46 -21 -59
-32 -59 -49 0 -12 -14 -37 -30 -56 -26 -28 -33 -31 -40 -19 -7 10 -10 11 -10
3 0 -7 -11 -13 -24 -13 -14 0 -28 -5 -32 -11 -3 -6 -22 -17 -41 -25 -40 -17
-50 -37 -33 -68 15 -29 10 -66 -12 -80 -24 -15 -42 5 -40 46 0 18 1 42 2 53 0
11 -1 31 -2 45 -2 19 2 26 20 28 26 4 30 37 6 46 -10 4 -14 14 -11 26 7 26
-30 61 -43 40 -5 -8 -6 -27 -3 -43 5 -23 3 -29 -8 -25 -8 3 -14 18 -15 34 0
16 -4 37 -8 46 -6 14 -2 20 19 28 20 7 26 16 23 33 -2 12 -9 21 -16 19 -7 -1
-12 9 -12 27 0 21 -8 36 -29 51 -36 25 -46 13 -25 -29 18 -36 16 -60 -8 -75
-27 -17 -57 17 -40 44 15 24 16 57 2 65 -5 3 -10 17 -10 31 0 17 5 24 20 24
14 0 20 7 20 21 0 12 -8 23 -20 26 -11 3 -20 13 -20 23 0 23 -22 31 -60 23
-22 -4 -30 -2 -30 8 0 8 -9 20 -20 27 -24 15 -25 25 -4 46 19 20 8 40 -17 33
-13 -4 -25 3 -35 18 -11 17 -29 26 -62 31 -30 4 -53 14 -64 28 l-18 21 0 -26
c0 -15 7 -32 15 -39 29 -24 11 -70 -27 -70 -23 0 -40 34 -32 65 3 14 2 25 -4
25 -20 0 -21 31 0 50 20 19 21 20 2 26 -10 4 -23 13 -27 21 -4 7 -25 13 -47
13 -29 0 -48 8 -73 30 -19 17 -49 33 -66 36 -17 4 -31 10 -31 15 0 5 -24 9
-54 9 -32 0 -72 8 -100 21 -26 11 -52 17 -59 12 -6 -4 -21 -6 -33 -5 -18 3
-20 -1 -16 -26 3 -22 -1 -30 -21 -39 -14 -7 -27 -22 -29 -35 -2 -19 -9 -23
-38 -23 -25 0 -36 5 -38 18 -5 23 15 47 39 47 10 0 23 9 29 20 9 17 5 21 -32
38 -43 19 -43 19 -65 -1 -21 -18 -23 -18 -29 -3 -5 14 -15 16 -63 10 -33 -3
-74 -1 -100 6 -31 8 -47 8 -54 1 -15 -15 -27 -14 -27 3 0 8 -15 16 -38 19 -20
4 -53 18 -71 32 -22 16 -42 23 -56 19 -13 -3 -27 1 -34 10 -11 13 -18 13 -63
0 -27 -9 -57 -13 -65 -10 -8 3 -27 -4 -43 -15 -19 -15 -38 -20 -59 -17 -25 4
-31 1 -33 -16 -2 -15 -9 -20 -25 -19 -15 2 -28 -6 -39 -22 -9 -14 -24 -25 -34
-25 -19 0 -64 -53 -80 -94 -5 -14 -15 -26 -21 -26 -7 0 -9 -10 -5 -27 11 -39
-11 -83 -41 -83 -22 0 -24 3 -18 33 4 17 13 42 21 54 8 12 14 32 14 43 0 12 5
30 11 41 13 26 48 163 42 169 -2 2 -9 -2 -14 -10 -17 -26 2 60 28 124 14 34
28 66 33 71 4 6 11 20 14 33 5 16 3 22 -8 22 -8 0 -17 -13 -21 -30 -4 -16 -11
-30 -16 -30 -5 0 -9 -5 -9 -12 0 -6 -6 -19 -14 -27 -18 -22 -37 -81 -25 -81
18 0 8 -28 -21 -60 -29 -31 -31 -32 -49 -16 -23 21 -17 52 14 82 20 19 45 97
45 141 0 8 54 67 120 130 109 104 139 143 110 143 -18 0 -11 66 9 84 11 10 22
28 25 42 4 13 11 24 16 24 5 0 25 14 43 30 26 22 45 30 73 30 42 0 67 11 62
26 -4 12 114 130 125 126 4 -2 5 -13 1 -25z m1756 -171 c0 -12 5 -27 12 -34 9
-9 9 -12 -1 -12 -9 0 -12 -9 -9 -25 4 -16 1 -25 -8 -25 -15 0 -31 -43 -17 -47
6 -2 8 -14 6 -26 -6 -29 23 -58 33 -33 3 9 11 16 17 16 5 0 3 -8 -6 -18 -21
-23 -22 -46 -2 -38 13 4 13 2 5 -14 -13 -23 10 -38 53 -34 16 2 25 -1 21 -7
-3 -5 -13 -7 -23 -4 -14 4 -17 -2 -18 -29 -1 -21 4 -37 13 -40 8 -3 14 -15 14
-26 0 -11 5 -20 12 -20 9 0 9 -3 1 -11 -14 -14 -59 23 -49 40 7 11 -48 44 -58
34 -13 -14 -5 -33 15 -33 11 0 17 -4 14 -10 -3 -5 -14 -10 -24 -10 -10 0 -26
-9 -36 -20 -23 -26 -39 -26 -32 0 3 12 -1 23 -10 29 -14 7 -14 12 2 39 15 24
22 29 36 22 14 -8 18 -3 24 35 3 25 3 55 0 68 -9 34 -38 100 -49 116 -6 7 -12
25 -13 40 -3 25 -3 25 12 7 8 -11 15 -23 15 -28 0 -20 16 -5 25 25 14 43 8 67
-16 67 -18 0 -18 1 -1 18 21 23 42 17 42 -12z m-188 -17 c29 -6 59 -16 66 -21
14 -12 16 -48 2 -48 -5 0 -11 -10 -11 -22 -1 -17 -2 -19 -6 -5 -5 18 -12 21
-37 11 -11 -4 -16 -19 -16 -43 0 -20 -6 -43 -12 -50 -11 -10 -8 -16 11 -32 13
-11 30 -18 37 -15 7 3 22 -6 33 -19 10 -14 26 -25 35 -25 16 0 23 -19 9 -21
-56 -8 -83 -4 -81 10 2 10 -6 17 -19 19 -13 2 -23 8 -23 13 0 17 -47 9 -65
-11 -15 -16 -15 -22 -5 -35 15 -18 -1 -21 -30 -5 -29 16 -36 -8 -9 -36 12 -13
20 -27 16 -30 -11 -11 -39 5 -44 26 -3 11 -14 20 -25 20 -11 0 -22 9 -25 20
-3 11 -10 20 -17 20 -6 0 -20 8 -31 17 -19 15 -19 15 7 9 14 -3 33 -8 41 -12
20 -7 47 48 47 97 l0 37 -67 -3 c-54 -2 -70 -7 -84 -24 -10 -11 -22 -21 -28
-21 -6 0 -11 -6 -12 -12 0 -10 -2 -10 -6 0 -6 15 -29 16 -38 2 -4 -6 -1 -18 7
-27 8 -10 8 -14 1 -10 -6 4 -15 3 -18 -3 -4 -7 -11 -8 -18 -1 -7 5 -33 8 -58
7 -34 -1 -45 2 -42 11 3 7 9 13 13 13 4 0 25 8 46 17 22 9 42 16 47 15 4 -1 6
4 5 11 -2 8 13 13 44 15 37 2 46 6 41 18 -4 12 8 14 78 13 46 0 92 3 103 7 16
6 18 3 13 -22 -3 -16 -8 -47 -12 -69 -3 -22 -9 -49 -12 -60 -5 -18 -3 -18 21
4 14 14 26 30 26 37 0 7 4 15 9 18 4 3 6 -6 3 -19 -5 -31 8 -32 32 -3 23 27
34 112 16 123 -7 4 -16 2 -20 -4 -5 -9 -10 -8 -20 4 -11 13 -9 15 16 15 29 1
29 1 9 18 -17 14 -19 22 -11 45 5 15 11 27 12 27 2 0 27 -5 56 -11z m-3152
-209 l0 -210 -765 0 -765 0 0 210 0 210 765 0 765 0 0 -210z m3539 107 c6 -8
12 -42 13 -78 3 -60 1 -64 -19 -67 -16 -2 -23 2 -23 12 0 9 -5 16 -11 16 -6 0
-9 -12 -7 -27 2 -22 8 -28 26 -26 13 2 22 -3 22 -12 0 -27 -22 -27 -49 1 -23
23 -27 34 -24 70 4 35 0 45 -19 58 -28 20 -36 20 -40 1 -2 -12 -6 -11 -16 6
-13 21 -12 21 32 17 25 -2 46 0 46 4 0 11 31 38 44 38 8 0 19 -6 25 -13z
m-6359 -647 c0 -5 7 -10 15 -10 9 0 18 -7 22 -16 4 -12 14 -14 35 -10 21 4 28
2 25 -7 -2 -6 -19 -12 -38 -12 -22 0 -33 -4 -31 -12 1 -7 -5 -13 -13 -13 -8 0
-15 -7 -15 -15 0 -17 21 -20 36 -5 7 7 10 -1 9 -26 0 -21 4 -38 12 -41 12 -5
19 -43 9 -43 -2 0 -12 -3 -21 -6 -12 -5 -16 -2 -15 12 4 31 1 44 -10 44 -5 0
-8 -17 -7 -37 2 -24 7 -37 15 -35 7 1 16 -6 19 -15 11 -27 46 -53 66 -49 9 2
17 0 17 -5 0 -5 9 -9 20 -9 14 0 21 -9 26 -36 4 -19 13 -38 20 -41 21 -8 17
-34 -6 -40 -28 -7 -27 -66 1 -94 22 -22 19 -49 -6 -49 -10 0 -15 10 -15 29 0
16 -6 36 -13 43 -7 7 -17 22 -21 33 -7 19 -9 18 -23 -9 -12 -23 -20 -27 -44
-24 -17 3 -32 1 -35 -4 -6 -9 8 -11 44 -8 16 1 22 -4 22 -19 0 -11 12 -29 26
-40 25 -19 25 -21 6 -21 -11 0 -24 5 -28 11 -4 8 -9 7 -15 -2 -4 -8 -14 -14
-20 -14 -7 0 -17 -8 -23 -17 -9 -14 -6 -22 13 -40 16 -16 25 -19 28 -10 3 6
14 12 25 12 27 0 17 -24 -12 -28 -13 -2 -34 -11 -47 -19 -21 -14 -23 -14 -23
0 0 8 6 18 13 20 7 3 5 6 -5 6 -20 1 -21 3 -9 54 7 29 6 37 -5 37 -8 0 -14 6
-15 13 0 9 -2 10 -6 0 -2 -7 -11 -13 -19 -13 -8 0 -14 -5 -14 -11 0 -6 7 -9
14 -6 10 4 13 1 9 -9 -3 -7 -9 -14 -14 -14 -17 0 -9 -29 13 -50 12 -11 19 -22
16 -25 -3 -3 -13 2 -22 11 -21 21 -34 9 -18 -16 17 -27 15 -31 -10 -21 -13 4
-25 19 -28 32 -4 16 -12 23 -24 21 -12 -2 -17 3 -16 15 5 45 0 65 -15 59 -8
-3 -19 2 -24 12 -8 14 -13 15 -30 4 -18 -10 -21 -10 -21 3 0 8 9 15 20 15 24
0 26 13 5 30 -11 9 -12 16 -4 26 12 14 3 54 -12 54 -5 0 -9 8 -9 18 0 13 2 14
9 3 6 -9 11 -10 15 -3 4 6 -2 16 -13 22 -16 8 -22 6 -31 -10 -6 -12 -8 -29 -5
-40 4 -11 0 -22 -10 -27 -9 -6 -18 -29 -22 -59 -3 -27 -9 -50 -14 -52 -15 -6
-10 -32 8 -39 14 -6 13 -7 -4 -14 -12 -4 -24 -21 -28 -38 -4 -17 -11 -31 -16
-31 -12 0 -5 100 9 127 20 37 14 59 -23 78 -19 11 -37 16 -41 12 -4 -4 -1 -7
7 -7 8 0 22 -12 32 -25 16 -22 16 -26 3 -31 -9 -3 -16 -18 -16 -32 0 -34 -16
-18 -27 28 -5 21 -18 39 -31 45 -26 11 -29 25 -6 25 9 0 14 7 12 17 -3 14 -13
17 -56 16 -51 -3 -73 12 -29 19 21 4 21 5 -7 18 -23 12 -30 12 -34 2 -5 -16
-29 -16 -35 1 -7 20 15 45 35 39 10 -2 18 1 18 8 0 7 7 10 15 7 17 -7 78 50
69 64 -6 10 29 13 39 2 4 -3 2 -12 -5 -20 -8 -10 -8 -17 -1 -24 8 -8 13 -7 17
0 11 17 29 13 22 -6 -4 -10 2 -25 15 -40 26 -27 24 -32 -19 -35 -46 -3 -40
-18 8 -18 29 0 43 5 52 20 7 11 19 20 26 20 8 0 13 10 12 28 -1 15 2 38 6 52
l8 25 7 -25 7 -25 1 28 c1 31 26 37 34 8 6 -25 39 -22 72 7 14 13 34 22 43 21
26 -2 62 12 56 22 -3 5 -16 9 -29 9 -33 0 -39 16 -13 34 12 9 17 16 10 16 -13
0 -7 45 10 66 5 7 6 30 2 53 -5 34 -4 41 10 41 9 0 16 7 16 15 0 8 -9 15 -20
15 -20 0 -26 11 -13 23 10 11 43 8 43 -3z"/>
<path d="M8868 1812 c-7 -8 -22 -11 -40 -7 -24 6 -34 1 -63 -31 -19 -21 -35
-46 -35 -56 0 -20 15 -24 25 -7 4 6 13 8 20 5 8 -3 15 -1 17 4 5 14 80 19 106
7 17 -8 22 -16 18 -32 -4 -15 3 -32 23 -53 15 -18 31 -32 34 -32 10 0 37 57
30 64 -4 3 -16 6 -27 7 -12 0 -15 3 -8 6 6 2 12 11 12 18 0 8 7 11 20 8 11 -3
20 0 20 6 0 6 -11 11 -24 11 -13 0 -37 7 -52 15 l-29 15 40 0 c22 -1 56 3 75
8 35 8 35 8 8 15 -14 4 -28 15 -30 25 -3 14 -14 17 -66 17 -40 0 -68 -5 -74
-13z"/>
<path d="M9730 1780 c-25 -11 -57 -22 -72 -25 -34 -7 -27 -32 10 -38 21 -3 18
-4 -10 -6 -21 0 -38 -6 -38 -12 0 -6 -7 -8 -15 -5 -8 3 -22 9 -30 12 -11 4
-15 0 -15 -15 0 -12 -6 -21 -15 -21 -8 0 -15 -7 -15 -16 0 -10 -6 -14 -17 -10
-10 3 -44 2 -75 -3 -32 -4 -58 -4 -58 0 0 4 -3 14 -6 23 -4 11 0 16 14 16 21
0 46 23 36 33 -4 3 -19 3 -35 0 -16 -3 -35 0 -42 6 -10 8 -22 8 -46 0 -37 -13
-81 -5 -81 16 0 8 -9 15 -20 15 -25 0 -26 -16 -1 -30 11 -5 22 -19 26 -29 3
-11 16 -22 28 -24 12 -2 -3 -3 -33 -3 -43 1 -55 4 -55 17 0 9 -7 26 -16 39
-12 19 -20 22 -44 16 l-29 -7 32 -16 c23 -11 32 -22 32 -39 0 -15 -6 -24 -15
-24 -8 0 -15 -4 -15 -10 0 -5 -9 -10 -20 -10 -14 0 -18 5 -14 18 4 10 3 13 -3
6 -4 -6 -19 -14 -33 -18 -18 -5 -21 -5 -10 3 8 5 11 13 8 16 -11 11 -28 -5
-28 -25 0 -10 -5 -20 -12 -22 -6 -2 -8 -10 -4 -17 6 -9 11 -9 21 -1 8 7 19 9
24 6 5 -4 12 -2 16 3 3 6 12 8 20 5 7 -3 25 2 39 11 14 10 53 19 87 21 34 3
64 5 68 6 33 4 71 -4 71 -16 0 -18 43 -46 70 -46 12 0 18 -4 15 -10 -11 -18
17 -11 31 8 8 10 13 12 14 5 0 -7 8 -13 18 -13 14 0 15 2 2 10 -12 7 -10 11
10 20 14 6 41 22 60 36 19 14 43 23 52 21 10 -3 21 -1 24 4 8 14 24 10 18 -5
-3 -7 2 -16 10 -19 10 -4 13 -1 9 8 -9 24 26 29 68 9 34 -17 39 -23 39 -52 0
-96 143 -167 213 -106 12 10 36 20 52 21 29 3 29 3 11 -12 -11 -8 -26 -15 -34
-15 -7 0 -10 -4 -7 -10 3 -5 15 -10 26 -10 10 0 19 5 19 10 0 6 8 10 17 10 13
0 14 -3 5 -12 -17 -17 -15 -28 4 -28 8 0 13 4 9 9 -3 5 4 12 15 16 11 3 20 11
20 16 0 5 5 9 10 9 14 0 12 -28 -2 -33 -17 -5 8 -37 29 -37 13 0 13 -3 3 -15
-7 -8 -10 -21 -7 -28 3 -7 -4 -19 -15 -26 -23 -14 -11 -35 14 -26 17 7 28 35
28 73 0 12 5 22 11 22 6 0 9 -6 6 -13 -3 -8 -1 -20 3 -27 5 -7 4 -24 -1 -37
-5 -14 -5 -23 1 -23 5 0 17 -17 25 -37 34 -81 96 -111 155 -77 28 17 33 17 58
3 29 -16 59 -66 47 -77 -4 -4 -10 -2 -12 5 -2 7 -11 9 -19 6 -13 -5 -13 -7 -2
-14 11 -7 10 -11 -2 -19 -11 -7 -6 -8 18 -4 25 5 32 3 32 -9 0 -10 -6 -13 -20
-10 -21 6 -37 -18 -25 -38 6 -8 10 -8 16 2 16 26 20 0 5 -30 -10 -19 -12 -32
-6 -36 17 -10 11 -25 -10 -25 -15 0 -20 -7 -20 -29 0 -17 5 -33 11 -37 6 -3 9
-20 7 -36 -4 -24 0 -31 19 -39 38 -14 49 1 19 26 -14 12 -26 31 -25 41 0 17 2
17 16 -4 8 -12 26 -22 39 -22 12 0 25 -4 28 -9 7 -11 56 -11 56 -1 0 12 -28
20 -45 14 -8 -4 -15 -1 -15 4 0 6 10 14 21 17 26 9 55 -18 65 -59 6 -25 4 -28
-10 -23 -23 9 -20 -1 7 -25 l22 -19 -27 4 c-32 5 -28 -18 5 -27 43 -11 68 57
42 117 -11 26 1 33 15 8 11 -21 40 -29 40 -11 0 6 12 10 26 10 22 0 24 3 18
23 -4 12 -11 25 -16 28 -5 3 -6 17 -3 32 7 26 -8 67 -25 67 -14 0 -60 46 -60
60 0 22 -11 5 -16 -26 -3 -16 -10 -34 -16 -41 -8 -10 -8 -21 1 -39 17 -38 13
-49 -9 -29 -11 10 -20 29 -20 42 0 32 -18 29 -22 -4 -3 -24 -8 -28 -35 -28
-17 0 -30 -2 -28 -5 6 -9 -13 -35 -20 -28 -4 3 1 20 10 38 9 18 14 34 11 37
-3 4 2 12 12 20 16 13 15 14 -5 10 -13 -3 -23 -1 -23 4 0 5 5 9 11 9 7 0 9 10
5 26 -6 22 -4 25 10 20 10 -4 21 0 29 10 11 16 14 15 34 -5 18 -18 20 -25 11
-37 -10 -11 -9 -15 4 -20 22 -8 30 1 21 23 -5 10 -8 33 -7 51 0 24 -3 32 -13
28 -7 -2 -16 3 -20 12 -5 13 -9 11 -24 -11 -17 -27 -18 -27 -35 -8 -12 13 -14
20 -5 23 9 3 7 12 -6 31 -19 30 -11 36 17 10 13 -12 22 -13 29 -6 17 17 69 -5
80 -34 5 -13 13 -21 19 -18 13 8 13 35 0 35 -5 0 -10 7 -10 15 0 8 -9 15 -20
15 -11 0 -27 12 -36 26 -15 22 -15 27 -3 35 11 8 10 13 -8 26 -15 10 -23 26
-23 43 0 33 -22 54 -49 47 -12 -3 -27 4 -40 20 -23 25 -52 23 -30 -3 6 -8 9
-26 6 -41 -3 -18 2 -36 16 -55 11 -15 17 -31 12 -35 -4 -5 -10 -2 -12 5 -3 6
-13 12 -23 12 -10 0 -23 12 -30 30 -7 17 -19 30 -27 30 -10 0 -13 -6 -8 -17 4
-10 9 -24 12 -30 8 -20 -15 -15 -37 7 -11 11 -20 15 -20 9 0 -11 -51 -57 -57
-51 -6 5 2 17 10 14 4 -1 10 4 13 12 6 16 -22 48 -52 60 -18 7 -18 8 -2 20 16
12 16 14 0 31 -16 17 -16 17 11 11 22 -5 27 -3 27 13 0 13 -9 21 -30 26 -21 5
-30 13 -30 26 0 10 -6 19 -14 19 -7 0 -19 7 -26 15 -17 21 3 20 41 -2 27 -16
29 -16 43 2 11 16 17 17 29 7 24 -20 31 4 7 28 -11 11 -24 20 -29 20 -5 0 -8
15 -7 33 1 30 -1 32 -37 35 -28 2 -42 10 -54 30 -20 31 -33 42 -51 42 -9 0
-11 -7 -7 -20 8 -24 -11 -26 -39 -5 -25 19 -36 19 -36 0 0 -8 5 -15 10 -15 6
0 10 -13 10 -30 0 -16 4 -30 8 -30 12 0 54 -41 49 -47 -3 -2 -16 3 -30 11 -13
9 -31 14 -39 11 -8 -3 -23 3 -33 15 -17 19 -45 27 -45 13 0 -3 7 -15 17 -25
19 -22 10 -36 -12 -18 -15 13 -19 8 -16 -22 1 -10 -3 -18 -8 -18 -11 0 -15 12
-12 43 1 9 -4 17 -13 17 -9 0 -15 -5 -13 -11 1 -6 -4 -14 -10 -16 -7 -3 -13 0
-13 6 0 6 -7 8 -16 4 -10 -4 -14 -13 -10 -29 3 -12 2 -26 -4 -29 -13 -8 -13
61 0 86 6 11 7 19 1 19 -5 0 -11 -7 -15 -15 -6 -17 -46 -21 -46 -5 0 6 7 10
15 10 20 0 19 10 -2 26 -16 12 -15 13 15 14 23 0 32 4 29 13 -2 7 -17 11 -34
9 -18 -2 -35 3 -43 13 -7 8 -19 15 -27 15 -8 0 -11 5 -8 11 4 6 19 7 36 4 19
-4 36 -1 51 9 12 9 31 16 41 16 10 0 15 5 12 10 -3 6 -16 10 -27 10 -12 0 -36
11 -54 25 -38 29 -35 29 -94 5z"/>
<path d="M5810 2020 l0 -200 755 0 755 0 0 200 0 200 -755 0 -755 0 0 -200z
m324 74 c9 -8 16 -22 16 -30 0 -8 7 -14 15 -14 13 0 15 -11 13 -57 l-3 -58
-69 -3 c-81 -3 -86 1 -86 76 0 37 4 52 13 52 8 0 19 11 25 25 13 29 52 34 76
9z"/>
<path d="M12007 6860 c-3 -12 0 -20 8 -20 25 0 24 -30 -1 -57 -15 -16 -21 -29
-14 -33 18 -11 0 -41 -21 -35 -13 4 -19 1 -19 -9 0 -9 -4 -16 -10 -16 -5 0
-10 -5 -10 -12 0 -6 9 -3 21 8 16 15 22 16 29 5 5 -10 26 -14 65 -12 47 1 60
-2 71 -17 8 -11 31 -22 56 -26 27 -5 38 -10 30 -15 -7 -4 -24 -6 -38 -3 -27 5
-29 0 -14 -29 13 -24 60 -26 60 -3 0 15 2 15 25 0 13 -9 27 -16 30 -16 9 0 5
39 -5 45 -5 3 -10 12 -10 18 0 7 7 4 14 -5 18 -25 57 -23 63 2 4 15 14 20 36
20 29 0 30 -1 11 -15 -10 -8 -24 -15 -31 -15 -15 0 -7 -27 15 -52 13 -16 13
-18 -2 -24 -9 -3 -13 -10 -10 -15 6 -10 64 20 64 33 0 4 7 8 16 8 12 0 15 -6
11 -21 -3 -12 0 -28 8 -35 18 -19 31 -18 15 1 -7 8 -10 21 -7 29 3 7 0 19 -6
25 -8 8 -8 14 2 24 10 10 15 8 26 -6 7 -10 11 -27 8 -37 -4 -15 0 -20 16 -20
11 0 21 5 21 10 0 6 5 10 11 10 6 0 8 -9 4 -21 -6 -18 -5 -19 13 -8 30 19 68
4 83 -33 l13 -32 9 33 c7 30 10 32 25 18 31 -26 63 -28 83 -4 l18 22 25 -29
c14 -16 28 -37 31 -47 7 -22 25 -16 25 8 0 25 -49 83 -70 83 -10 0 -22 5 -25
10 -3 6 0 10 9 10 8 0 21 3 30 6 10 4 16 1 16 -9 0 -9 15 -21 34 -28 19 -7 32
-17 29 -22 -3 -5 4 -6 16 -2 12 4 34 0 51 -9 l30 -14 0 199 0 199 -489 0
c-478 -1 -489 -1 -494 -20z"/>
<path d="M3586 6773 c-3 -7 -1 -15 4 -18 6 -4 10 -15 10 -26 0 -28 18 -24 26
6 4 18 13 25 30 25 22 0 23 -2 12 -20 -7 -11 -18 -20 -24 -20 -13 0 -32 -41
-27 -57 6 -17 23 -17 23 0 0 7 10 21 22 31 17 15 25 16 40 7 10 -6 29 -11 43
-11 15 0 24 -4 20 -10 -3 -5 -1 -10 5 -10 7 0 10 -6 7 -12 -2 -7 -11 -12 -21
-10 -11 2 -16 -4 -16 -22 0 -33 13 -39 33 -15 14 16 21 17 37 9 16 -8 20 -8
20 4 0 8 -8 16 -17 18 -15 3 -15 4 1 21 24 23 49 23 41 -2 -3 -12 0 -21 10
-25 12 -4 13 -10 6 -24 -7 -14 -7 -24 2 -36 11 -16 14 -14 30 18 17 37 37 48
37 21 0 -9 6 -12 15 -9 8 4 15 2 15 -3 0 -16 58 -13 64 3 3 8 1 14 -3 14 -5 0
-7 10 -3 23 5 21 4 21 -14 6 -29 -24 -51 -29 -63 -15 -12 14 4 36 23 33 12 -2
16 42 4 49 -4 3 -5 10 -2 16 4 6 2 8 -3 5 -18 -11 -72 4 -76 22 -4 13 -6 11
-12 -6 -4 -13 -15 -23 -26 -23 -10 0 -20 -4 -24 -9 -3 -6 -14 -9 -23 -8 -14 1
-17 7 -14 25 3 17 1 23 -7 18 -6 -4 -9 -11 -7 -15 3 -4 -7 -8 -22 -9 -15 0
-36 -2 -46 -4 -15 -2 -22 5 -29 29 -9 31 -12 33 -53 30 -24 -1 -46 -7 -48 -14z"/>
<path d="M1823 6596 c3 -8 -1 -20 -9 -26 -8 -7 -14 -20 -14 -29 0 -31 -18 -45
-54 -43 -31 2 -36 0 -36 -19 0 -15 5 -19 15 -15 8 3 15 1 15 -4 0 -5 8 -11 18
-13 10 -3 6 -5 -10 -6 -35 -1 -35 -15 -2 -48 22 -22 25 -30 15 -44 -8 -14 -8
-25 1 -44 12 -27 38 -34 38 -10 0 9 -6 12 -15 9 -11 -5 -14 -2 -9 12 4 11 11
24 16 31 5 6 12 38 15 70 6 65 16 92 27 74 4 -6 2 -11 -3 -11 -16 0 -13 -26 4
-40 9 -7 13 -20 10 -28 -3 -8 -3 -30 1 -48 5 -29 10 -34 35 -34 23 0 32 -6 40
-27 8 -21 12 -24 19 -14 4 8 6 20 3 27 -3 9 4 12 22 11 24 -2 27 2 31 37 3 36
24 77 24 48 0 -7 7 -12 15 -12 8 0 15 -3 15 -6 0 -10 -28 -34 -39 -34 -6 0
-11 -4 -11 -10 0 -10 13 -14 41 -11 10 1 16 -5 15 -15 0 -9 5 -19 12 -21 7 -3
12 4 12 16 0 11 6 24 14 28 7 4 21 23 30 41 l17 33 -30 12 c-16 6 -32 19 -34
29 -3 10 -14 18 -27 18 -13 0 -24 8 -27 20 -5 20 -23 28 -23 10 0 -5 -4 -10
-10 -10 -14 0 -12 27 3 33 9 4 9 7 -1 18 -11 11 -14 12 -21 1 -7 -11 -9 -10
-14 2 -4 9 -18 16 -34 16 -15 0 -39 9 -53 20 -29 23 -54 26 -47 6z"/>
<path d="M2669 6473 c-10 -26 -4 -36 25 -46 22 -8 -8 -27 -42 -27 l-37 0 1
-53 c2 -75 2 -77 23 -77 28 0 42 -22 26 -43 -8 -11 -19 -15 -31 -10 -18 7 -18
6 -2 -11 15 -14 24 -15 55 -7 25 7 39 7 41 1 9 -25 22 -6 22 30 0 38 -1 40
-25 34 -20 -5 -25 -2 -25 12 0 11 -3 29 -6 42 -5 16 -2 22 10 22 9 0 16 5 16
10 0 6 6 10 13 10 16 0 47 36 47 54 0 7 9 16 20 19 24 6 27 39 5 57 -13 11
-17 8 -28 -19 -11 -30 -37 -43 -37 -18 0 6 -14 20 -30 29 -31 17 -31 17 -41
-9z"/>
<path d="M7024 6435 c3 -8 8 -21 11 -28 4 -8 -7 -16 -27 -22 -44 -13 -37 -30
10 -27 48 3 60 -6 68 -48 l5 -35 -21 24 c-17 20 -25 23 -38 14 -19 -11 -29
-53 -14 -53 6 0 13 6 15 13 4 9 9 -59 6 -90 0 -5 -10 -7 -21 -5 -11 1 -26 -5
-33 -15 -7 -10 -19 -14 -29 -10 -12 5 -19 -1 -26 -19 -6 -14 -14 -22 -20 -19
-5 3 -19 1 -30 -5 -12 -6 -35 -13 -53 -14 -47 -5 -97 -26 -97 -42 0 -7 14 -23
30 -36 21 -15 30 -30 29 -47 -1 -17 -3 -20 -6 -8 -4 16 -53 26 -53 10 0 -16
-72 -83 -95 -89 -46 -11 -125 77 -109 121 7 18 -37 77 -53 71 -7 -3 -13 -1
-13 3 0 18 26 17 59 -1 l34 -19 27 29 c28 31 46 97 29 107 -16 11 -9 27 10 22
22 -6 23 20 1 43 -17 17 -100 23 -100 7 0 -7 -4 -7 -12 1 -15 15 -48 16 -48 1
0 -6 9 -13 20 -16 20 -5 29 -33 10 -33 -5 0 -7 -8 -4 -17 4 -14 1 -13 -14 4
-11 13 -32 27 -46 33 -19 7 -26 17 -26 35 0 14 -4 25 -10 25 -11 0 -21 -35
-23 -82 -1 -19 -10 -39 -21 -47 -17 -13 -21 -12 -37 7 -9 12 -20 22 -23 22
-11 0 -6 -26 10 -48 15 -22 17 -22 41 -7 20 13 28 14 37 5 8 -9 8 -14 -1 -17
-7 -3 -13 -12 -13 -22 0 -22 -19 -41 -42 -41 -10 0 -18 -2 -18 -5 0 -10 32
-70 46 -86 13 -14 12 -18 -2 -30 -14 -11 -18 -11 -29 5 -8 11 -19 15 -26 10
-9 -5 -10 -2 -6 11 6 14 3 16 -13 12 -13 -3 -28 2 -40 16 -24 25 -25 31 -5 47
8 7 15 20 14 29 0 10 -2 11 -6 4 -7 -18 -63 -16 -108 3 -47 19 -58 9 -22 -22
15 -13 25 -24 21 -24 -3 0 2 -12 11 -27 22 -32 32 -94 13 -75 -31 31 -39 -3
-8 -36 11 -12 27 -19 34 -16 11 4 13 0 9 -16 -5 -20 -10 -21 -52 -16 -43 6
-45 6 -26 -9 52 -40 57 -47 51 -68 -3 -12 -9 -46 -13 -76 -6 -54 -6 -54 18
-47 51 16 69 18 69 8 0 -6 -4 -14 -10 -17 -17 -10 -11 -51 10 -78 11 -14 20
-31 20 -39 0 -8 5 -19 12 -26 9 -9 8 -16 -5 -30 -21 -23 -22 -52 -2 -52 8 0
15 -5 15 -10 0 -6 -7 -13 -15 -16 -19 -8 -20 -30 -1 -37 8 -3 16 2 19 12 2 10
18 21 36 24 22 5 31 12 31 26 0 11 4 22 10 26 5 3 7 11 5 18 -3 7 8 20 24 29
28 15 30 15 34 0 2 -9 -3 -25 -11 -34 -12 -14 -12 -18 -2 -18 7 0 19 8 26 17
15 22 20 18 28 -29 6 -31 4 -38 -9 -38 -9 0 -15 -9 -15 -24 0 -13 -3 -26 -7
-28 -5 -1 -21 -23 -38 -47 -16 -24 -45 -53 -63 -65 -23 -15 -31 -27 -28 -40 3
-11 0 -29 -6 -40 -10 -19 -8 -19 15 3 15 13 29 31 32 40 3 9 21 27 40 41 36
26 75 87 68 106 -2 6 3 17 12 24 8 7 15 20 15 29 0 9 7 27 16 39 8 12 10 22 5
22 -26 0 -8 31 28 50 47 23 59 39 40 51 -8 5 -9 9 -4 10 6 0 22 3 36 5 23 4
25 2 21 -25 -2 -18 5 -44 21 -72 20 -37 29 -44 51 -41 29 3 34 -13 12 -43 -12
-17 -12 -24 0 -47 15 -29 56 -48 62 -29 5 15 37 14 71 -3 40 -21 70 -10 119
43 48 51 62 78 62 122 0 24 7 33 35 46 53 25 61 11 57 -103 l-3 -94 50 -53 51
-54 -4 -119 c-3 -65 -7 -139 -11 -164 l-7 -45 55 0 c49 0 60 -4 89 -32 l33
-33 -6 94 c-4 51 -14 114 -23 140 -14 42 -60 124 -76 136 -19 15 -79 104 -74
111 3 5 18 9 34 9 23 0 33 7 46 33 9 17 13 29 9 25 -5 -4 -14 -3 -20 2 -9 7
-16 6 -25 -5 -18 -21 -25 -19 -28 9 -1 21 3 25 31 28 25 2 33 8 35 27 3 21 1
23 -20 18 -21 -6 -27 -1 -41 28 l-16 34 34 -15 c43 -18 65 -18 65 0 0 7 8 16
18 20 9 3 24 11 34 18 23 17 43 -2 58 -57 10 -34 17 -45 33 -45 26 0 86 66 94
103 3 15 11 27 18 27 7 0 15 7 18 14 4 10 1 13 -8 10 -8 -3 -25 12 -44 39 -35
52 -39 54 -108 52 -35 -1 -53 2 -53 10 0 6 -15 19 -32 28 -32 15 -32 16 -8 18
31 2 32 2 52 -6 13 -5 22 5 41 47 14 29 29 67 35 83 6 17 11 24 11 18 2 -23
29 -14 35 12 4 16 11 22 21 19 10 -4 15 0 15 11 0 9 -4 13 -10 10 -5 -3 -21 6
-34 20 l-24 26 -4 -22 c-3 -20 -6 -18 -23 16 -11 22 -26 46 -32 53 -18 19 -16
32 6 32 10 0 27 11 37 25 12 16 29 25 46 25 20 0 28 5 28 18 0 10 4 22 9 28 6
5 12 45 15 89 l5 80 -19 -70 c-32 -121 -39 -136 -61 -125 -26 15 -25 44 1 37
33 -8 24 20 -10 32 -31 10 -36 20 -21 37 4 5 12 23 15 39 6 24 5 28 -5 18 -7
-7 -23 -13 -35 -13 -32 0 -77 -39 -64 -55 6 -7 9 -19 8 -26 -2 -7 8 -18 20
-25 41 -21 47 -31 33 -58 -18 -33 -44 -38 -88 -15 -20 10 -43 19 -50 19 -6 0
-18 12 -25 26 -7 14 -25 33 -40 42 -26 16 -28 15 -49 -7 -21 -22 -22 -22 -32
-5 -6 11 -14 21 -18 24 -5 4 -12 20 -15 38 -5 24 -3 33 10 38 9 3 16 12 16 18
0 7 11 19 25 26 14 7 25 17 25 22 0 4 9 8 20 8 16 0 20 -7 20 -34 0 -47 12
-51 39 -15 24 33 22 56 -6 65 -58 19 -72 28 -75 47 -3 19 -9 22 -44 19 -27 -2
-45 2 -54 13 -16 19 -34 20 -26 0z"/>
<path d="M3124 6165 c-8 -19 21 -81 41 -89 8 -3 15 -12 15 -20 0 -21 40 -24
90 -6 33 11 45 21 45 35 0 17 -6 19 -32 17 -24 -2 -33 1 -33 12 0 8 6 16 13
19 24 9 -11 30 -47 29 -19 -1 -38 3 -41 8 -10 15 -45 12 -51 -5z"/>
<path d="M7725 5940 c-3 -5 -18 -8 -33 -6 -15 2 -22 1 -15 -1 6 -2 14 -11 17
-19 4 -11 0 -14 -13 -12 -11 2 -33 -9 -50 -24 -17 -16 -35 -28 -41 -28 -5 0
-10 -4 -10 -10 0 -5 4 -10 9 -10 6 0 13 5 16 10 8 13 26 13 45 0 12 -8 13 -12
2 -19 -11 -7 -11 -11 0 -22 22 -22 29 -59 11 -59 -10 0 -12 6 -8 20 5 15 0 21
-20 26 -20 5 -23 9 -14 20 7 9 7 14 1 14 -5 0 -18 -12 -27 -27 -14 -21 -15
-30 -6 -46 7 -10 11 -20 9 -20 -2 -1 -13 -7 -25 -14 -17 -10 -23 -10 -27 0 -3
8 -9 7 -19 -5 -8 -10 -20 -18 -26 -18 -14 0 -14 -2 14 -47 21 -35 45 -44 45
-17 0 9 6 14 13 11 6 -2 11 -13 10 -23 -4 -33 5 -48 21 -35 10 8 16 9 21 1 11
-18 -5 -30 -34 -24 -46 10 -50 -27 -6 -52 22 -12 75 0 75 17 0 11 50 -20 67
-41 6 -8 15 -12 19 -7 4 4 2 7 -4 7 -7 0 -12 7 -12 15 0 8 -7 15 -16 15 -11 0
-14 5 -10 17 4 10 -2 25 -15 39 l-21 22 21 12 c12 6 19 16 15 21 -19 32 34 92
61 69 11 -9 16 -6 25 11 9 17 9 23 -1 29 -10 7 -9 18 1 57 8 26 18 51 24 55
10 7 -15 13 -37 9 -4 -1 -10 7 -14 16 -3 10 -15 25 -26 35 -18 14 -19 19 -8
32 7 9 11 16 8 16 -3 0 -9 -4 -12 -10z"/>
<path d="M6151 5320 c-13 -11 -20 -20 -16 -20 4 0 2 -7 -5 -15 -7 -8 -17 -15
-22 -15 -6 0 -5 7 2 15 9 11 10 19 3 26 -16 16 -38 1 -56 -36 -9 -19 -23 -35
-32 -35 -18 0 -20 -26 -3 -36 6 -4 19 3 30 16 22 28 36 19 19 -12 -45 -85 -42
-82 -86 -79 -20 2 -20 1 -1 -14 11 -8 23 -15 27 -15 4 0 7 -14 7 -31 -1 -24
-5 -30 -19 -26 -18 5 -57 -28 -46 -39 3 -3 17 -7 31 -8 14 0 26 -6 26 -13 0
-18 62 -7 78 14 7 10 19 26 27 36 17 19 12 22 -16 7 -17 -10 -18 -8 -8 16 5
15 8 33 5 40 -3 8 0 11 10 7 17 -6 44 14 44 34 0 11 -7 13 -29 8 -34 -7 -43 7
-34 60 4 28 11 37 32 42 38 9 52 23 45 45 -3 10 0 25 6 33 17 20 10 18 -19 -5z"/>
<path d="M4480 4315 l0 -175 25 0 c22 0 24 -2 15 -26 -17 -44 14 -63 38 -23
10 16 10 24 1 35 -9 11 -8 14 5 14 12 0 16 8 14 28 -3 53 10 72 51 72 24 0 52
9 73 24 34 23 35 23 30 4 -3 -14 -1 -19 7 -17 8 3 15 32 17 76 9 131 -27 163
-181 163 l-95 0 0 -175z"/>
<path d="M4855 4403 c-48 -12 -85 -70 -85 -133 0 -51 12 -74 61 -123 30 -29
42 -35 56 -28 10 5 36 14 59 20 61 16 87 50 91 119 3 45 0 64 -17 90 -31 50
-96 72 -165 55z"/>
<path d="M6444 4396 c-52 -23 -74 -61 -74 -127 0 -47 5 -63 25 -88 49 -58 136
-65 195 -15 42 36 39 54 -9 54 -22 0 -43 -4 -46 -10 -11 -18 -64 -11 -75 9 -5
11 -10 22 -10 25 0 3 41 6 90 6 87 0 90 1 90 23 -1 44 -36 103 -73 120 -42 20
-71 21 -113 3z"/>
<path d="M6934 4396 c-52 -23 -74 -61 -74 -127 0 -70 30 -113 91 -129 72 -20
159 25 159 81 0 28 -70 27 -88 -1 -28 -45 -77 -13 -77 50 0 63 49 95 77 50 18
-28 88 -29 88 -1 0 30 -38 70 -78 81 -47 13 -60 12 -98 -4z"/>
<path d="M4950 3269 c0 -11 -6 -27 -14 -35 -17 -17 -6 -71 14 -66 7 2 21 -5
31 -14 17 -15 19 -15 25 -1 7 19 43 19 67 -1 15 -14 17 -13 17 6 0 12 5 22 11
22 5 0 7 5 4 11 -4 6 -9 8 -13 5 -8 -9 -31 27 -32 50 0 24 -30 37 -51 23 -21
-13 -39 -11 -39 6 0 8 -4 15 -10 15 -5 0 -10 -9 -10 -21z"/>
<path d="M3562 1305 c-12 -14 -22 -29 -22 -35 0 -5 -8 -6 -17 -3 -16 6 -16 5
-5 -10 16 -19 12 -59 -5 -64 -7 -3 -15 7 -19 22 l-7 26 -28 -27 c-20 -19 -26
-31 -19 -39 14 -17 1 -26 -27 -19 -22 6 -23 4 -17 -20 5 -20 2 -26 -10 -26 -9
0 -16 -4 -16 -10 0 -5 7 -10 15 -10 10 0 15 -10 15 -30 l0 -30 -36 15 c-45 19
-44 19 -45 -2 -1 -13 -3 -12 -7 4 -5 16 -11 20 -20 14 -12 -7 -12 -12 -1 -29
18 -28 4 -40 -21 -17 -18 16 -20 16 -26 1 -3 -9 -4 -30 0 -47 7 -35 -14 -49
-41 -28 -15 13 -16 11 -10 -9 5 -21 3 -23 -19 -18 -20 5 -25 3 -24 -11 5 -40
0 -54 -17 -52 -43 7 -85 -44 -45 -54 14 -4 14 -6 -5 -12 -18 -6 -23 -15 -23
-41 0 -36 10 -43 30 -19 8 9 22 12 41 8 23 -4 29 -2 29 11 0 10 5 14 10 11 6
-3 10 -15 10 -26 0 -10 5 -19 10 -19 6 0 10 -7 10 -16 0 -10 -6 -14 -15 -10
-8 3 -28 0 -45 -5 -29 -11 -30 -13 -30 -69 0 -63 22 -116 52 -124 11 -2 18
-14 18 -28 0 -35 20 -52 36 -30 12 15 13 12 14 -20 0 -27 -4 -38 -15 -38 -24
0 -17 -20 9 -30 19 -7 24 -15 22 -37 -2 -16 -10 -29 -20 -31 -12 -3 -14 -8 -6
-22 7 -13 6 -20 -6 -24 -26 -10 -34 -7 -34 14 0 20 -14 21 -67 4 -15 -4 -17
-40 -3 -49 14 -9 12 -42 -2 -48 -8 -3 -9 -6 -2 -6 6 -1 9 -12 6 -26 -3 -20 -1
-24 12 -19 10 4 16 18 16 35 0 19 5 29 15 29 18 0 19 -18 3 -70 -13 -40 -22
-48 -33 -30 -11 17 -25 11 -35 -15 -7 -17 -16 -24 -31 -22 -12 1 -24 -4 -26
-10 -4 -10 25 -13 121 -13 105 0 126 2 126 15 0 19 14 19 30 0 17 -21 43 -19
59 4 8 11 20 17 27 14 8 -3 17 2 20 11 9 24 54 16 65 -11 15 -40 29 -25 29 30
0 51 1 52 30 54 34 2 40 -12 9 -22 -16 -5 -19 -12 -15 -30 3 -13 2 -27 -4 -30
-5 -3 -10 -13 -10 -21 0 -10 14 -14 54 -14 49 0 54 2 49 20 -4 14 0 20 11 20
9 0 16 5 16 10 0 14 -23 13 -38 -2 -6 -6 -15 -8 -19 -3 -5 4 -3 10 4 12 7 2 9
11 6 19 -3 9 1 14 12 14 15 0 17 7 11 46 -7 54 -15 71 -26 54 -4 -7 -2 -28 6
-46 9 -20 10 -34 4 -34 -5 0 -10 7 -10 15 0 10 -11 15 -32 16 -18 0 -27 3 -21
6 8 3 11 14 7 29 -6 24 10 35 19 12 2 -7 8 -10 12 -6 12 12 -5 28 -31 28 -14
0 -35 11 -48 25 -22 24 -46 33 -46 18 0 -5 14 -23 30 -42 32 -35 32 -58 0 -39
-16 10 -22 8 -38 -13 l-20 -24 21 -8 c21 -8 20 -9 -8 -32 -20 -16 -38 -22 -52
-18 -16 4 -23 1 -23 -10 0 -15 -20 -27 -46 -27 -8 0 -14 7 -14 15 0 19 -19 19
-26 0 -4 -8 -11 -12 -16 -9 -7 4 -4 10 5 16 12 6 15 17 10 41 -3 18 -11 36
-17 40 -6 5 -1 6 11 2 16 -4 26 0 35 14 7 12 18 21 25 21 7 0 13 10 13 22 0
17 -3 19 -12 10 -7 -7 -18 -12 -25 -12 -10 0 -12 28 -10 126 2 94 -1 130 -11
143 -11 14 -12 11 -6 -19 l6 -35 -26 24 c-14 14 -26 34 -26 47 0 18 5 21 31
20 17 -1 37 -9 44 -19 13 -19 35 -23 35 -7 0 18 -32 60 -45 60 -7 0 -16 -6
-18 -12 -3 -7 -6 -3 -6 10 -1 22 7 26 42 23 22 -3 22 15 -1 21 -20 6 -27 51
-12 76 8 15 9 14 10 -4 0 -21 27 -41 38 -29 3 3 2 5 -3 5 -4 0 -2 7 5 15 15
18 1 40 -31 50 -10 4 -19 13 -19 21 0 8 -7 17 -15 20 -8 4 -13 9 -11 13 3 3
-2 38 -9 76 -7 39 -11 73 -8 78 8 14 22 7 25 -14 2 -12 11 -27 20 -32 13 -9
21 -6 38 14 21 24 21 24 17 2 -4 -18 -1 -23 14 -23 10 0 19 -7 19 -15 0 -8 6
-15 14 -15 7 0 16 -9 19 -20 8 -33 22 -23 47 33 24 53 26 59 29 76 0 6 13 3
29 -5 44 -23 55 -19 38 14 -12 23 -12 29 0 40 7 6 20 12 29 12 8 0 15 7 15 15
0 8 -4 15 -10 15 -5 0 -14 10 -21 22 -10 18 -9 20 5 15 19 -8 23 19 4 26 -8 4
-4 8 10 13 16 5 21 11 16 23 -3 9 -9 24 -11 34 -3 10 -15 17 -29 17 -15 0 -24
6 -24 16 0 12 6 15 26 10 24 -6 26 -5 20 16 -4 13 -9 48 -12 78 -3 30 -7 56
-8 57 -2 2 -12 -8 -24 -22z"/>
<path d="M3485 470 c3 -5 -2 -10 -12 -10 -13 0 -22 -13 -32 -45 -18 -60 -34
-72 -48 -35 -10 26 -9 30 9 35 33 11 14 30 -34 33 -42 3 -46 1 -50 -22 -3 -17
1 -31 13 -42 18 -16 19 -16 19 4 0 12 5 22 10 22 6 0 10 -8 10 -18 0 -10 5
-23 12 -30 9 -9 8 -15 -8 -27 -17 -13 -17 -14 -1 -15 9 0 17 -5 17 -11 0 -5 5
-7 10 -4 6 3 10 2 10 -3 0 -8 50 -36 55 -30 2 2 6 17 9 35 6 24 3 34 -11 43
-13 8 -14 13 -5 16 6 3 12 12 12 20 0 9 4 13 9 10 5 -3 11 1 15 9 4 10 14 13
36 9 26 -6 30 -4 30 15 0 14 -11 25 -36 36 -43 18 -47 18 -39 5z"/>
</g>
</svg>
