<?xml version="1.0" encoding="UTF-8"?>
<svg version="1.1" xmlns="http://www.w3.org/2000/svg" width="225" height="225">
<path d="M0 0 C74.25 0 148.5 0 225 0 C225 74.25 225 148.5 225 225 C150.75 225 76.5 225 0 225 C0 150.75 0 76.5 0 0 Z " fill="#737373" transform="translate(0,0)"/>
<path d="M0 0 C38.94 0 77.88 0 118 0 C118 74.25 118 148.5 118 225 C43.75 225 -30.5 225 -107 225 C-107 212.46 -107 199.92 -107 187 C-104.03 186.67 -101.06 186.34 -98 186 C-98 185.67 -98 185.34 -98 185 C-96.38738281 184.98453125 -96.38738281 184.98453125 -94.7421875 184.96875 C-90.73243104 184.37733612 -90.73243104 184.37733612 -88.8828125 180.78125 C-88.271151 179.3650015 -87.68678139 177.93676416 -87.125 176.5 C-86.45857872 174.94352837 -85.78787051 173.3888865 -85.11328125 171.8359375 C-84.77119629 171.03510742 -84.42911133 170.23427734 -84.07666016 169.40917969 C-82.04393953 164.86067921 -79.62146998 160.51915404 -77.23291016 156.15039062 C-74.18546246 150.51437188 -71.67603398 144.88727476 -69 139 C-36.33 139 -3.66 139 30 139 C30.99 136.03 30.99 136.03 32 133 C32.89613988 131.04237296 33.83103574 129.10217208 34.79736328 127.17822266 C35.35779327 126.05751373 35.91822327 124.93680481 36.49563599 123.78213501 C37.10377514 122.5760673 37.71200269 121.37004415 38.3203125 120.1640625 C38.94557121 118.91727968 39.57047426 117.67031844 40.19503784 116.42318726 C41.83217314 113.15651781 43.47410077 109.89228063 45.11706543 106.62854004 C46.79580946 103.29158645 48.46997225 99.95233636 50.14453125 96.61328125 C53.42522833 90.07327488 56.71099571 83.53583328 60 77 C60.66 77 61.32 77 62 77 C62.25905121 76.15658051 62.51810242 75.31316101 62.78500366 74.44418335 C64.07921371 70.77545074 65.68838067 67.35688402 67.43994141 63.89306641 C67.78710897 63.1984902 68.13427654 62.50391399 68.49196434 61.78829002 C69.60810538 59.55749158 70.72970146 57.32948887 71.8515625 55.1015625 C72.54487839 53.71787409 73.23783256 52.33400438 73.93041992 50.94995117 C76.49090278 45.83943871 79.05836953 40.73242774 81.625 35.625 C87.35875 24.19875 93.0925 12.7725 99 1 C66.33 1 33.66 1 0 1 C0 0.67 0 0.34 0 0 Z " fill="#535353" transform="translate(107,0)"/>
</svg>
